G04 #@! TF.GenerationSoftware,KiCad,Pcbnew,(5.0.0-rc2-dev-158-g52ab6216c)*
G04 #@! TF.CreationDate,2018-07-05T01:48:08+02:00*
G04 #@! TF.ProjectId,7seg-clock,377365672D636C6F636B2E6B69636164,rev?*
G04 #@! TF.SameCoordinates,Original*
G04 #@! TF.FileFunction,Copper,L2,Bot,Signal*
G04 #@! TF.FilePolarity,Positive*
%FSLAX46Y46*%
G04 Gerber Fmt 4.6, Leading zero omitted, Abs format (unit mm)*
G04 Created by KiCad (PCBNEW (5.0.0-rc2-dev-158-g52ab6216c)) date 07/05/18 01:48:08*
%MOMM*%
%LPD*%
G01*
G04 APERTURE LIST*
%ADD10R,1.600000X1.600000*%
%ADD11C,1.600000*%
%ADD12R,4.000000X4.000000*%
%ADD13C,0.100000*%
%ADD14C,4.000000*%
%ADD15R,1.700000X1.700000*%
%ADD16O,1.700000X1.700000*%
%ADD17O,2.000000X1.600000*%
%ADD18R,2.000000X2.000000*%
%ADD19C,0.800000*%
%ADD20C,0.250000*%
%ADD21C,0.600000*%
%ADD22C,1.800000*%
%ADD23C,0.254000*%
G04 APERTURE END LIST*
D10*
X134100000Y-124600000D03*
D11*
X134100000Y-127100000D03*
D12*
X142500000Y-124200000D03*
D13*
G36*
X143598017Y-128204815D02*
X143695090Y-128219215D01*
X143790285Y-128243060D01*
X143882683Y-128276120D01*
X143971397Y-128318079D01*
X144055570Y-128368530D01*
X144134393Y-128426990D01*
X144207107Y-128492893D01*
X144273010Y-128565607D01*
X144331470Y-128644430D01*
X144381921Y-128728603D01*
X144423880Y-128817317D01*
X144456940Y-128909715D01*
X144480785Y-129004910D01*
X144495185Y-129101983D01*
X144500000Y-129200000D01*
X144500000Y-131200000D01*
X144495185Y-131298017D01*
X144480785Y-131395090D01*
X144456940Y-131490285D01*
X144423880Y-131582683D01*
X144381921Y-131671397D01*
X144331470Y-131755570D01*
X144273010Y-131834393D01*
X144207107Y-131907107D01*
X144134393Y-131973010D01*
X144055570Y-132031470D01*
X143971397Y-132081921D01*
X143882683Y-132123880D01*
X143790285Y-132156940D01*
X143695090Y-132180785D01*
X143598017Y-132195185D01*
X143500000Y-132200000D01*
X141500000Y-132200000D01*
X141401983Y-132195185D01*
X141304910Y-132180785D01*
X141209715Y-132156940D01*
X141117317Y-132123880D01*
X141028603Y-132081921D01*
X140944430Y-132031470D01*
X140865607Y-131973010D01*
X140792893Y-131907107D01*
X140726990Y-131834393D01*
X140668530Y-131755570D01*
X140618079Y-131671397D01*
X140576120Y-131582683D01*
X140543060Y-131490285D01*
X140519215Y-131395090D01*
X140504815Y-131298017D01*
X140500000Y-131200000D01*
X140500000Y-129200000D01*
X140504815Y-129101983D01*
X140519215Y-129004910D01*
X140543060Y-128909715D01*
X140576120Y-128817317D01*
X140618079Y-128728603D01*
X140668530Y-128644430D01*
X140726990Y-128565607D01*
X140792893Y-128492893D01*
X140865607Y-128426990D01*
X140944430Y-128368530D01*
X141028603Y-128318079D01*
X141117317Y-128276120D01*
X141209715Y-128243060D01*
X141304910Y-128219215D01*
X141401983Y-128204815D01*
X141500000Y-128200000D01*
X143500000Y-128200000D01*
X143598017Y-128204815D01*
X143598017Y-128204815D01*
G37*
D14*
X142500000Y-130200000D03*
D13*
G36*
X148298017Y-125204815D02*
X148395090Y-125219215D01*
X148490285Y-125243060D01*
X148582683Y-125276120D01*
X148671397Y-125318079D01*
X148755570Y-125368530D01*
X148834393Y-125426990D01*
X148907107Y-125492893D01*
X148973010Y-125565607D01*
X149031470Y-125644430D01*
X149081921Y-125728603D01*
X149123880Y-125817317D01*
X149156940Y-125909715D01*
X149180785Y-126004910D01*
X149195185Y-126101983D01*
X149200000Y-126200000D01*
X149200000Y-128200000D01*
X149195185Y-128298017D01*
X149180785Y-128395090D01*
X149156940Y-128490285D01*
X149123880Y-128582683D01*
X149081921Y-128671397D01*
X149031470Y-128755570D01*
X148973010Y-128834393D01*
X148907107Y-128907107D01*
X148834393Y-128973010D01*
X148755570Y-129031470D01*
X148671397Y-129081921D01*
X148582683Y-129123880D01*
X148490285Y-129156940D01*
X148395090Y-129180785D01*
X148298017Y-129195185D01*
X148200000Y-129200000D01*
X146200000Y-129200000D01*
X146101983Y-129195185D01*
X146004910Y-129180785D01*
X145909715Y-129156940D01*
X145817317Y-129123880D01*
X145728603Y-129081921D01*
X145644430Y-129031470D01*
X145565607Y-128973010D01*
X145492893Y-128907107D01*
X145426990Y-128834393D01*
X145368530Y-128755570D01*
X145318079Y-128671397D01*
X145276120Y-128582683D01*
X145243060Y-128490285D01*
X145219215Y-128395090D01*
X145204815Y-128298017D01*
X145200000Y-128200000D01*
X145200000Y-126200000D01*
X145204815Y-126101983D01*
X145219215Y-126004910D01*
X145243060Y-125909715D01*
X145276120Y-125817317D01*
X145318079Y-125728603D01*
X145368530Y-125644430D01*
X145426990Y-125565607D01*
X145492893Y-125492893D01*
X145565607Y-125426990D01*
X145644430Y-125368530D01*
X145728603Y-125318079D01*
X145817317Y-125276120D01*
X145909715Y-125243060D01*
X146004910Y-125219215D01*
X146101983Y-125204815D01*
X146200000Y-125200000D01*
X148200000Y-125200000D01*
X148298017Y-125204815D01*
X148298017Y-125204815D01*
G37*
D14*
X147200000Y-127200000D03*
D15*
X142500000Y-119600000D03*
D16*
X142500000Y-117060000D03*
X142500000Y-114520000D03*
X142500000Y-111980000D03*
X142500000Y-109440000D03*
X142500000Y-106900000D03*
D17*
X130215001Y-107010001D03*
D18*
X130215001Y-104470001D03*
D17*
X130215001Y-109550001D03*
X130215001Y-112090001D03*
X130215001Y-114630001D03*
X130215001Y-117170001D03*
X130215001Y-119710001D03*
X130215001Y-122250001D03*
X153075001Y-122250001D03*
X153075001Y-119710001D03*
X153075001Y-117170001D03*
X153075001Y-114630001D03*
X153075001Y-112090001D03*
X153075001Y-109550001D03*
X153075001Y-107010001D03*
X153075001Y-104470001D03*
D19*
X134750000Y-115000000D03*
X147750000Y-113750000D03*
X132500000Y-105000000D03*
X151250000Y-105750000D03*
D20*
X134750000Y-108750000D02*
X134750000Y-115000000D01*
X139000000Y-104500000D02*
X134750000Y-108750000D01*
X147500000Y-104500000D02*
X139000000Y-104500000D01*
X147750000Y-104750000D02*
X147500000Y-104500000D01*
X147750000Y-113750000D02*
X147750000Y-104750000D01*
D21*
X132000000Y-105500000D02*
X132000000Y-122250000D01*
X132500000Y-105000000D02*
X132000000Y-105500000D01*
X132000000Y-122250000D02*
X132250000Y-122500000D01*
X132250000Y-122500000D02*
X132250000Y-124150000D01*
X132250000Y-124150000D02*
X132700000Y-124600000D01*
X132700000Y-124600000D02*
X134100000Y-124600000D01*
X151675001Y-122250001D02*
X153075001Y-122250001D01*
X151250000Y-105750000D02*
X151250000Y-121825000D01*
X151250000Y-121825000D02*
X151675001Y-122250001D01*
D22*
X137400000Y-124600000D02*
X134100000Y-124600000D01*
X137400000Y-124600000D02*
X141900000Y-124600000D01*
D21*
X150500000Y-125750000D02*
X151750000Y-125750000D01*
X147200000Y-127200000D02*
X149050000Y-127200000D01*
X149050000Y-127200000D02*
X150500000Y-125750000D01*
D22*
X134100000Y-127100000D02*
X137400000Y-127100000D01*
X137400000Y-127100000D02*
X140550000Y-130250000D01*
D23*
G36*
X142354529Y-115997000D02*
X142645471Y-115997000D01*
X142997383Y-115927000D01*
X144173000Y-115927000D01*
X144173000Y-125873000D01*
X140727000Y-125873000D01*
X140727000Y-115927000D01*
X142002617Y-115927000D01*
X142354529Y-115997000D01*
X142354529Y-115997000D01*
G37*
X142354529Y-115997000D02*
X142645471Y-115997000D01*
X142997383Y-115927000D01*
X144173000Y-115927000D01*
X144173000Y-125873000D01*
X140727000Y-125873000D01*
X140727000Y-115927000D01*
X142002617Y-115927000D01*
X142354529Y-115997000D01*
G36*
X146623000Y-120250000D02*
X146632667Y-120298601D01*
X146660197Y-120339803D01*
X146701399Y-120367333D01*
X146750000Y-120377000D01*
X150323001Y-120377000D01*
X150323001Y-121733695D01*
X150304839Y-121825000D01*
X150373000Y-122167664D01*
X150373000Y-129477546D01*
X149862040Y-129988506D01*
X149523000Y-130807022D01*
X149523000Y-131692978D01*
X149862040Y-132511494D01*
X150373000Y-133022454D01*
X150373000Y-133523000D01*
X138627000Y-133523000D01*
X138627000Y-126127000D01*
X139860717Y-126127000D01*
X139860717Y-126200000D01*
X139909380Y-126444643D01*
X140047959Y-126652041D01*
X140255357Y-126790620D01*
X140500000Y-126839283D01*
X144500000Y-126839283D01*
X144744643Y-126790620D01*
X144952041Y-126652041D01*
X145090620Y-126444643D01*
X145139283Y-126200000D01*
X145139283Y-122200000D01*
X145090620Y-121955357D01*
X144952041Y-121747959D01*
X144927000Y-121731227D01*
X144927000Y-115800000D01*
X144879272Y-115560057D01*
X144743356Y-115356644D01*
X144539943Y-115220728D01*
X144300000Y-115173000D01*
X143840052Y-115173000D01*
X143891303Y-115096297D01*
X144005936Y-114520000D01*
X143891303Y-113943703D01*
X143564858Y-113455142D01*
X143257840Y-113250000D01*
X143564858Y-113044858D01*
X143891303Y-112556297D01*
X144005936Y-111980000D01*
X143891303Y-111403703D01*
X143564858Y-110915142D01*
X143076297Y-110588697D01*
X142645471Y-110503000D01*
X142354529Y-110503000D01*
X141923703Y-110588697D01*
X141435142Y-110915142D01*
X141108697Y-111403703D01*
X140994064Y-111980000D01*
X141108697Y-112556297D01*
X141435142Y-113044858D01*
X141742160Y-113250000D01*
X141435142Y-113455142D01*
X141108697Y-113943703D01*
X140994064Y-114520000D01*
X141108697Y-115096297D01*
X141159948Y-115173000D01*
X140600000Y-115173000D01*
X140360057Y-115220728D01*
X140156644Y-115356644D01*
X140020728Y-115560057D01*
X139973000Y-115800000D01*
X139973000Y-121860143D01*
X139909380Y-121955357D01*
X139860717Y-122200000D01*
X139860717Y-123073000D01*
X138627000Y-123073000D01*
X138627000Y-105936489D01*
X139311489Y-105252000D01*
X146623000Y-105252000D01*
X146623000Y-120250000D01*
X146623000Y-120250000D01*
G37*
X146623000Y-120250000D02*
X146632667Y-120298601D01*
X146660197Y-120339803D01*
X146701399Y-120367333D01*
X146750000Y-120377000D01*
X150323001Y-120377000D01*
X150323001Y-121733695D01*
X150304839Y-121825000D01*
X150373000Y-122167664D01*
X150373000Y-129477546D01*
X149862040Y-129988506D01*
X149523000Y-130807022D01*
X149523000Y-131692978D01*
X149862040Y-132511494D01*
X150373000Y-133022454D01*
X150373000Y-133523000D01*
X138627000Y-133523000D01*
X138627000Y-126127000D01*
X139860717Y-126127000D01*
X139860717Y-126200000D01*
X139909380Y-126444643D01*
X140047959Y-126652041D01*
X140255357Y-126790620D01*
X140500000Y-126839283D01*
X144500000Y-126839283D01*
X144744643Y-126790620D01*
X144952041Y-126652041D01*
X145090620Y-126444643D01*
X145139283Y-126200000D01*
X145139283Y-122200000D01*
X145090620Y-121955357D01*
X144952041Y-121747959D01*
X144927000Y-121731227D01*
X144927000Y-115800000D01*
X144879272Y-115560057D01*
X144743356Y-115356644D01*
X144539943Y-115220728D01*
X144300000Y-115173000D01*
X143840052Y-115173000D01*
X143891303Y-115096297D01*
X144005936Y-114520000D01*
X143891303Y-113943703D01*
X143564858Y-113455142D01*
X143257840Y-113250000D01*
X143564858Y-113044858D01*
X143891303Y-112556297D01*
X144005936Y-111980000D01*
X143891303Y-111403703D01*
X143564858Y-110915142D01*
X143076297Y-110588697D01*
X142645471Y-110503000D01*
X142354529Y-110503000D01*
X141923703Y-110588697D01*
X141435142Y-110915142D01*
X141108697Y-111403703D01*
X140994064Y-111980000D01*
X141108697Y-112556297D01*
X141435142Y-113044858D01*
X141742160Y-113250000D01*
X141435142Y-113455142D01*
X141108697Y-113943703D01*
X140994064Y-114520000D01*
X141108697Y-115096297D01*
X141159948Y-115173000D01*
X140600000Y-115173000D01*
X140360057Y-115220728D01*
X140156644Y-115356644D01*
X140020728Y-115560057D01*
X139973000Y-115800000D01*
X139973000Y-121860143D01*
X139909380Y-121955357D01*
X139860717Y-122200000D01*
X139860717Y-123073000D01*
X138627000Y-123073000D01*
X138627000Y-105936489D01*
X139311489Y-105252000D01*
X146623000Y-105252000D01*
X146623000Y-120250000D01*
G36*
X131323001Y-124058695D02*
X131304839Y-124150000D01*
X131376786Y-124511697D01*
X131581671Y-124818330D01*
X131659074Y-124870049D01*
X131979949Y-125190924D01*
X132031670Y-125268330D01*
X132338303Y-125473215D01*
X132608698Y-125527000D01*
X132608699Y-125527000D01*
X132689163Y-125543006D01*
X132709380Y-125644643D01*
X132847959Y-125852041D01*
X133055357Y-125990620D01*
X133288506Y-126036997D01*
X133271861Y-126092255D01*
X134100000Y-126920395D01*
X134114142Y-126906252D01*
X134293748Y-127085858D01*
X134279605Y-127100000D01*
X135107745Y-127928139D01*
X135353864Y-127854005D01*
X135546965Y-127316777D01*
X135519778Y-126746546D01*
X135353864Y-126345995D01*
X135107747Y-126271861D01*
X135222622Y-126156986D01*
X135192636Y-126127000D01*
X138373000Y-126127000D01*
X138373000Y-133523000D01*
X129571603Y-133523000D01*
X129400978Y-133489061D01*
X129317031Y-133432969D01*
X129260939Y-133349022D01*
X129227000Y-133178397D01*
X129227000Y-128107745D01*
X133271861Y-128107745D01*
X133345995Y-128353864D01*
X133883223Y-128546965D01*
X134453454Y-128519778D01*
X134854005Y-128353864D01*
X134928139Y-128107745D01*
X134100000Y-127279605D01*
X133271861Y-128107745D01*
X129227000Y-128107745D01*
X129227000Y-126883223D01*
X132653035Y-126883223D01*
X132680222Y-127453454D01*
X132846136Y-127854005D01*
X133092255Y-127928139D01*
X133920395Y-127100000D01*
X133092255Y-126271861D01*
X132846136Y-126345995D01*
X132653035Y-126883223D01*
X129227000Y-126883223D01*
X129227000Y-123439713D01*
X129458213Y-123594205D01*
X129874457Y-123677001D01*
X130555545Y-123677001D01*
X130971789Y-123594205D01*
X131323001Y-123359532D01*
X131323001Y-124058695D01*
X131323001Y-124058695D01*
G37*
X131323001Y-124058695D02*
X131304839Y-124150000D01*
X131376786Y-124511697D01*
X131581671Y-124818330D01*
X131659074Y-124870049D01*
X131979949Y-125190924D01*
X132031670Y-125268330D01*
X132338303Y-125473215D01*
X132608698Y-125527000D01*
X132608699Y-125527000D01*
X132689163Y-125543006D01*
X132709380Y-125644643D01*
X132847959Y-125852041D01*
X133055357Y-125990620D01*
X133288506Y-126036997D01*
X133271861Y-126092255D01*
X134100000Y-126920395D01*
X134114142Y-126906252D01*
X134293748Y-127085858D01*
X134279605Y-127100000D01*
X135107745Y-127928139D01*
X135353864Y-127854005D01*
X135546965Y-127316777D01*
X135519778Y-126746546D01*
X135353864Y-126345995D01*
X135107747Y-126271861D01*
X135222622Y-126156986D01*
X135192636Y-126127000D01*
X138373000Y-126127000D01*
X138373000Y-133523000D01*
X129571603Y-133523000D01*
X129400978Y-133489061D01*
X129317031Y-133432969D01*
X129260939Y-133349022D01*
X129227000Y-133178397D01*
X129227000Y-128107745D01*
X133271861Y-128107745D01*
X133345995Y-128353864D01*
X133883223Y-128546965D01*
X134453454Y-128519778D01*
X134854005Y-128353864D01*
X134928139Y-128107745D01*
X134100000Y-127279605D01*
X133271861Y-128107745D01*
X129227000Y-128107745D01*
X129227000Y-126883223D01*
X132653035Y-126883223D01*
X132680222Y-127453454D01*
X132846136Y-127854005D01*
X133092255Y-127928139D01*
X133920395Y-127100000D01*
X133092255Y-126271861D01*
X132846136Y-126345995D01*
X132653035Y-126883223D01*
X129227000Y-126883223D01*
X129227000Y-123439713D01*
X129458213Y-123594205D01*
X129874457Y-123677001D01*
X130555545Y-123677001D01*
X130971789Y-123594205D01*
X131323001Y-123359532D01*
X131323001Y-124058695D01*
G36*
X150659074Y-122545049D02*
X150954950Y-122840925D01*
X151006671Y-122918331D01*
X151313304Y-123123216D01*
X151583699Y-123177001D01*
X151583700Y-123177001D01*
X151675000Y-123195162D01*
X151766301Y-123177001D01*
X151778165Y-123177001D01*
X151846192Y-123278810D01*
X152318213Y-123594205D01*
X152734457Y-123677001D01*
X153415545Y-123677001D01*
X153831789Y-123594205D01*
X154023000Y-123466441D01*
X154023000Y-133178397D01*
X153989061Y-133349022D01*
X153932969Y-133432969D01*
X153849022Y-133489061D01*
X153678397Y-133523000D01*
X150627000Y-133523000D01*
X150627000Y-133195326D01*
X151307022Y-133477000D01*
X152192978Y-133477000D01*
X153011494Y-133137960D01*
X153637960Y-132511494D01*
X153977000Y-131692978D01*
X153977000Y-130807022D01*
X153637960Y-129988506D01*
X153011494Y-129362040D01*
X152192978Y-129023000D01*
X151307022Y-129023000D01*
X150627000Y-129304674D01*
X150627000Y-122523618D01*
X150659074Y-122545049D01*
X150659074Y-122545049D01*
G37*
X150659074Y-122545049D02*
X150954950Y-122840925D01*
X151006671Y-122918331D01*
X151313304Y-123123216D01*
X151583699Y-123177001D01*
X151583700Y-123177001D01*
X151675000Y-123195162D01*
X151766301Y-123177001D01*
X151778165Y-123177001D01*
X151846192Y-123278810D01*
X152318213Y-123594205D01*
X152734457Y-123677001D01*
X153415545Y-123677001D01*
X153831789Y-123594205D01*
X154023000Y-123466441D01*
X154023000Y-133178397D01*
X153989061Y-133349022D01*
X153932969Y-133432969D01*
X153849022Y-133489061D01*
X153678397Y-133523000D01*
X150627000Y-133523000D01*
X150627000Y-133195326D01*
X151307022Y-133477000D01*
X152192978Y-133477000D01*
X153011494Y-133137960D01*
X153637960Y-132511494D01*
X153977000Y-131692978D01*
X153977000Y-130807022D01*
X153637960Y-129988506D01*
X153011494Y-129362040D01*
X152192978Y-129023000D01*
X151307022Y-129023000D01*
X150627000Y-129304674D01*
X150627000Y-122523618D01*
X150659074Y-122545049D01*
G36*
X151530797Y-103913213D02*
X151420045Y-104470001D01*
X151471814Y-104730262D01*
X151454283Y-104723000D01*
X151045717Y-104723000D01*
X150668251Y-104879352D01*
X150379352Y-105168251D01*
X150223000Y-105545717D01*
X150223000Y-105954283D01*
X150323000Y-106195704D01*
X150323001Y-120123000D01*
X146877000Y-120123000D01*
X146877000Y-114326071D01*
X146879352Y-114331749D01*
X147168251Y-114620648D01*
X147545717Y-114777000D01*
X147954283Y-114777000D01*
X148331749Y-114620648D01*
X148620648Y-114331749D01*
X148777000Y-113954283D01*
X148777000Y-113545717D01*
X148620648Y-113168251D01*
X148502000Y-113049603D01*
X148502000Y-104824057D01*
X148516731Y-104749999D01*
X148502000Y-104675942D01*
X148502000Y-104675937D01*
X148458368Y-104456584D01*
X148292161Y-104207839D01*
X148229373Y-104165885D01*
X148084116Y-104020629D01*
X148042161Y-103957839D01*
X147793416Y-103791632D01*
X147574063Y-103748000D01*
X147574059Y-103748000D01*
X147500000Y-103733269D01*
X147425941Y-103748000D01*
X139074059Y-103748000D01*
X139000000Y-103733269D01*
X138925941Y-103748000D01*
X138925937Y-103748000D01*
X138706584Y-103791632D01*
X138520626Y-103915885D01*
X138520623Y-103915888D01*
X138457839Y-103957839D01*
X138415887Y-104020624D01*
X134270629Y-108165884D01*
X134207839Y-108207839D01*
X134041632Y-108456585D01*
X133998000Y-108675938D01*
X133998000Y-108675941D01*
X133983269Y-108750000D01*
X133998000Y-108824059D01*
X133998001Y-114299602D01*
X133879352Y-114418251D01*
X133723000Y-114795717D01*
X133723000Y-115204283D01*
X133879352Y-115581749D01*
X134168251Y-115870648D01*
X134545717Y-116027000D01*
X134954283Y-116027000D01*
X135331749Y-115870648D01*
X135620648Y-115581749D01*
X135777000Y-115204283D01*
X135777000Y-114795717D01*
X135620648Y-114418251D01*
X135502000Y-114299603D01*
X135502000Y-109061487D01*
X138373000Y-106190488D01*
X138373000Y-123073000D01*
X133949607Y-123073000D01*
X133508623Y-123160717D01*
X133300000Y-123160717D01*
X133177000Y-123185183D01*
X133177000Y-122591300D01*
X133195161Y-122499999D01*
X133145433Y-122250001D01*
X133123215Y-122138303D01*
X132927000Y-121844646D01*
X132927000Y-118807022D01*
X133273000Y-118807022D01*
X133273000Y-119692978D01*
X133612040Y-120511494D01*
X134238506Y-121137960D01*
X135057022Y-121477000D01*
X135942978Y-121477000D01*
X136761494Y-121137960D01*
X137387960Y-120511494D01*
X137727000Y-119692978D01*
X137727000Y-118807022D01*
X137387960Y-117988506D01*
X136761494Y-117362040D01*
X135942978Y-117023000D01*
X135057022Y-117023000D01*
X134238506Y-117362040D01*
X133612040Y-117988506D01*
X133273000Y-118807022D01*
X132927000Y-118807022D01*
X132927000Y-105934747D01*
X133081749Y-105870648D01*
X133370648Y-105581749D01*
X133527000Y-105204283D01*
X133527000Y-104795717D01*
X133370648Y-104418251D01*
X133081749Y-104129352D01*
X132704283Y-103973000D01*
X132295717Y-103973000D01*
X131918251Y-104129352D01*
X131854284Y-104193319D01*
X131854284Y-103477000D01*
X151822266Y-103477000D01*
X151530797Y-103913213D01*
X151530797Y-103913213D01*
G37*
X151530797Y-103913213D02*
X151420045Y-104470001D01*
X151471814Y-104730262D01*
X151454283Y-104723000D01*
X151045717Y-104723000D01*
X150668251Y-104879352D01*
X150379352Y-105168251D01*
X150223000Y-105545717D01*
X150223000Y-105954283D01*
X150323000Y-106195704D01*
X150323001Y-120123000D01*
X146877000Y-120123000D01*
X146877000Y-114326071D01*
X146879352Y-114331749D01*
X147168251Y-114620648D01*
X147545717Y-114777000D01*
X147954283Y-114777000D01*
X148331749Y-114620648D01*
X148620648Y-114331749D01*
X148777000Y-113954283D01*
X148777000Y-113545717D01*
X148620648Y-113168251D01*
X148502000Y-113049603D01*
X148502000Y-104824057D01*
X148516731Y-104749999D01*
X148502000Y-104675942D01*
X148502000Y-104675937D01*
X148458368Y-104456584D01*
X148292161Y-104207839D01*
X148229373Y-104165885D01*
X148084116Y-104020629D01*
X148042161Y-103957839D01*
X147793416Y-103791632D01*
X147574063Y-103748000D01*
X147574059Y-103748000D01*
X147500000Y-103733269D01*
X147425941Y-103748000D01*
X139074059Y-103748000D01*
X139000000Y-103733269D01*
X138925941Y-103748000D01*
X138925937Y-103748000D01*
X138706584Y-103791632D01*
X138520626Y-103915885D01*
X138520623Y-103915888D01*
X138457839Y-103957839D01*
X138415887Y-104020624D01*
X134270629Y-108165884D01*
X134207839Y-108207839D01*
X134041632Y-108456585D01*
X133998000Y-108675938D01*
X133998000Y-108675941D01*
X133983269Y-108750000D01*
X133998000Y-108824059D01*
X133998001Y-114299602D01*
X133879352Y-114418251D01*
X133723000Y-114795717D01*
X133723000Y-115204283D01*
X133879352Y-115581749D01*
X134168251Y-115870648D01*
X134545717Y-116027000D01*
X134954283Y-116027000D01*
X135331749Y-115870648D01*
X135620648Y-115581749D01*
X135777000Y-115204283D01*
X135777000Y-114795717D01*
X135620648Y-114418251D01*
X135502000Y-114299603D01*
X135502000Y-109061487D01*
X138373000Y-106190488D01*
X138373000Y-123073000D01*
X133949607Y-123073000D01*
X133508623Y-123160717D01*
X133300000Y-123160717D01*
X133177000Y-123185183D01*
X133177000Y-122591300D01*
X133195161Y-122499999D01*
X133145433Y-122250001D01*
X133123215Y-122138303D01*
X132927000Y-121844646D01*
X132927000Y-118807022D01*
X133273000Y-118807022D01*
X133273000Y-119692978D01*
X133612040Y-120511494D01*
X134238506Y-121137960D01*
X135057022Y-121477000D01*
X135942978Y-121477000D01*
X136761494Y-121137960D01*
X137387960Y-120511494D01*
X137727000Y-119692978D01*
X137727000Y-118807022D01*
X137387960Y-117988506D01*
X136761494Y-117362040D01*
X135942978Y-117023000D01*
X135057022Y-117023000D01*
X134238506Y-117362040D01*
X133612040Y-117988506D01*
X133273000Y-118807022D01*
X132927000Y-118807022D01*
X132927000Y-105934747D01*
X133081749Y-105870648D01*
X133370648Y-105581749D01*
X133527000Y-105204283D01*
X133527000Y-104795717D01*
X133370648Y-104418251D01*
X133081749Y-104129352D01*
X132704283Y-103973000D01*
X132295717Y-103973000D01*
X131918251Y-104129352D01*
X131854284Y-104193319D01*
X131854284Y-103477000D01*
X151822266Y-103477000D01*
X151530797Y-103913213D01*
G36*
X153202001Y-119583001D02*
X153222001Y-119583001D01*
X153222001Y-119837001D01*
X153202001Y-119837001D01*
X153202001Y-119857001D01*
X152948001Y-119857001D01*
X152948001Y-119837001D01*
X152928001Y-119837001D01*
X152928001Y-119583001D01*
X152948001Y-119583001D01*
X152948001Y-119563001D01*
X153202001Y-119563001D01*
X153202001Y-119583001D01*
X153202001Y-119583001D01*
G37*
X153202001Y-119583001D02*
X153222001Y-119583001D01*
X153222001Y-119837001D01*
X153202001Y-119837001D01*
X153202001Y-119857001D01*
X152948001Y-119857001D01*
X152948001Y-119837001D01*
X152928001Y-119837001D01*
X152928001Y-119583001D01*
X152948001Y-119583001D01*
X152948001Y-119563001D01*
X153202001Y-119563001D01*
X153202001Y-119583001D01*
G36*
X146998000Y-113049603D02*
X146879352Y-113168251D01*
X146877000Y-113173929D01*
X146877000Y-105252000D01*
X146998001Y-105252000D01*
X146998000Y-113049603D01*
X146998000Y-113049603D01*
G37*
X146998000Y-113049603D02*
X146879352Y-113168251D01*
X146877000Y-113173929D01*
X146877000Y-105252000D01*
X146998001Y-105252000D01*
X146998000Y-113049603D01*
M02*
