G04 #@! TF.GenerationSoftware,KiCad,Pcbnew,(5.0.0-rc2-dev-158-g52ab6216c)*
G04 #@! TF.CreationDate,2018-07-05T01:37:53+02:00*
G04 #@! TF.ProjectId,7seg-clock,377365672D636C6F636B2E6B69636164,rev?*
G04 #@! TF.SameCoordinates,Original*
G04 #@! TF.FileFunction,Soldermask,Bot*
G04 #@! TF.FilePolarity,Negative*
%FSLAX46Y46*%
G04 Gerber Fmt 4.6, Leading zero omitted, Abs format (unit mm)*
G04 Created by KiCad (PCBNEW (5.0.0-rc2-dev-158-g52ab6216c)) date 07/05/18 01:37:53*
%MOMM*%
%LPD*%
G01*
G04 APERTURE LIST*
%ADD10C,3.600000*%
%ADD11R,2.000000X2.000000*%
%ADD12C,2.000000*%
%ADD13R,3.900000X3.900000*%
%ADD14C,0.100000*%
%ADD15C,3.400000*%
%ADD16C,3.900000*%
%ADD17R,2.100000X2.100000*%
%ADD18O,2.100000X2.100000*%
%ADD19O,2.400000X2.000000*%
%ADD20R,2.400000X2.400000*%
G04 APERTURE END LIST*
D10*
X135500000Y-119250000D03*
D11*
X134100000Y-124600000D03*
D12*
X134100000Y-127100000D03*
D13*
X142500000Y-124200000D03*
D14*
G36*
X143683315Y-128504093D02*
X143765827Y-128516333D01*
X143846742Y-128536601D01*
X143925281Y-128564702D01*
X144000687Y-128600367D01*
X144072235Y-128643251D01*
X144139234Y-128692941D01*
X144201041Y-128748959D01*
X144257059Y-128810766D01*
X144306749Y-128877765D01*
X144349633Y-128949313D01*
X144385298Y-129024719D01*
X144413399Y-129103258D01*
X144433667Y-129184173D01*
X144445907Y-129266685D01*
X144450000Y-129350000D01*
X144450000Y-131050000D01*
X144445907Y-131133315D01*
X144433667Y-131215827D01*
X144413399Y-131296742D01*
X144385298Y-131375281D01*
X144349633Y-131450687D01*
X144306749Y-131522235D01*
X144257059Y-131589234D01*
X144201041Y-131651041D01*
X144139234Y-131707059D01*
X144072235Y-131756749D01*
X144000687Y-131799633D01*
X143925281Y-131835298D01*
X143846742Y-131863399D01*
X143765827Y-131883667D01*
X143683315Y-131895907D01*
X143600000Y-131900000D01*
X141400000Y-131900000D01*
X141316685Y-131895907D01*
X141234173Y-131883667D01*
X141153258Y-131863399D01*
X141074719Y-131835298D01*
X140999313Y-131799633D01*
X140927765Y-131756749D01*
X140860766Y-131707059D01*
X140798959Y-131651041D01*
X140742941Y-131589234D01*
X140693251Y-131522235D01*
X140650367Y-131450687D01*
X140614702Y-131375281D01*
X140586601Y-131296742D01*
X140566333Y-131215827D01*
X140554093Y-131133315D01*
X140550000Y-131050000D01*
X140550000Y-129350000D01*
X140554093Y-129266685D01*
X140566333Y-129184173D01*
X140586601Y-129103258D01*
X140614702Y-129024719D01*
X140650367Y-128949313D01*
X140693251Y-128877765D01*
X140742941Y-128810766D01*
X140798959Y-128748959D01*
X140860766Y-128692941D01*
X140927765Y-128643251D01*
X140999313Y-128600367D01*
X141074719Y-128564702D01*
X141153258Y-128536601D01*
X141234173Y-128516333D01*
X141316685Y-128504093D01*
X141400000Y-128500000D01*
X143600000Y-128500000D01*
X143683315Y-128504093D01*
X143683315Y-128504093D01*
G37*
D15*
X142500000Y-130200000D03*
D14*
G36*
X148270567Y-125254695D02*
X148365213Y-125268734D01*
X148458028Y-125291983D01*
X148548116Y-125324217D01*
X148634612Y-125365127D01*
X148716681Y-125414317D01*
X148793533Y-125471315D01*
X148864429Y-125535571D01*
X148928685Y-125606467D01*
X148985683Y-125683319D01*
X149034873Y-125765388D01*
X149075783Y-125851884D01*
X149108017Y-125941972D01*
X149131266Y-126034787D01*
X149145305Y-126129433D01*
X149150000Y-126225000D01*
X149150000Y-128175000D01*
X149145305Y-128270567D01*
X149131266Y-128365213D01*
X149108017Y-128458028D01*
X149075783Y-128548116D01*
X149034873Y-128634612D01*
X148985683Y-128716681D01*
X148928685Y-128793533D01*
X148864429Y-128864429D01*
X148793533Y-128928685D01*
X148716681Y-128985683D01*
X148634612Y-129034873D01*
X148548116Y-129075783D01*
X148458028Y-129108017D01*
X148365213Y-129131266D01*
X148270567Y-129145305D01*
X148175000Y-129150000D01*
X146225000Y-129150000D01*
X146129433Y-129145305D01*
X146034787Y-129131266D01*
X145941972Y-129108017D01*
X145851884Y-129075783D01*
X145765388Y-129034873D01*
X145683319Y-128985683D01*
X145606467Y-128928685D01*
X145535571Y-128864429D01*
X145471315Y-128793533D01*
X145414317Y-128716681D01*
X145365127Y-128634612D01*
X145324217Y-128548116D01*
X145291983Y-128458028D01*
X145268734Y-128365213D01*
X145254695Y-128270567D01*
X145250000Y-128175000D01*
X145250000Y-126225000D01*
X145254695Y-126129433D01*
X145268734Y-126034787D01*
X145291983Y-125941972D01*
X145324217Y-125851884D01*
X145365127Y-125765388D01*
X145414317Y-125683319D01*
X145471315Y-125606467D01*
X145535571Y-125535571D01*
X145606467Y-125471315D01*
X145683319Y-125414317D01*
X145765388Y-125365127D01*
X145851884Y-125324217D01*
X145941972Y-125291983D01*
X146034787Y-125268734D01*
X146129433Y-125254695D01*
X146225000Y-125250000D01*
X148175000Y-125250000D01*
X148270567Y-125254695D01*
X148270567Y-125254695D01*
G37*
D16*
X147200000Y-127200000D03*
D17*
X142500000Y-119600000D03*
D18*
X142500000Y-117060000D03*
X142500000Y-114520000D03*
X142500000Y-111980000D03*
X142500000Y-109440000D03*
X142500000Y-106900000D03*
D19*
X130215001Y-107010001D03*
D20*
X130215001Y-104470001D03*
D19*
X130215001Y-109550001D03*
X130215001Y-112090001D03*
X130215001Y-114630001D03*
X130215001Y-117170001D03*
X130215001Y-119710001D03*
X130215001Y-122250001D03*
X153075001Y-122250001D03*
X153075001Y-119710001D03*
X153075001Y-117170001D03*
X153075001Y-114630001D03*
X153075001Y-112090001D03*
X153075001Y-109550001D03*
X153075001Y-107010001D03*
X153075001Y-104470001D03*
D10*
X151750000Y-131250000D03*
M02*
