M48
;DRILL file {KiCad (5.0.0-rc2-dev-158-g52ab6216c)} date 07/05/18 01:48:10
;FORMAT={2:4/ absolute / inch / suppress leading zeros}
FMAT,2
INCH,TZ
T1C0.0157
T2C0.0315
T3C0.0394
T4C0.1181
T5C0.1260
%
G90
G05
M72
T1
X52165Y-41339
X53051Y-45276
X58169Y-44783
X59547Y-41634
T2
X52795Y-49055
X52795Y-50039
T3
X56102Y-42087
X56102Y-43087
X56102Y-44087
X56102Y-45087
X56102Y-46087
X56102Y-47087
X51266Y-41130
X51266Y-42130
X51266Y-43130
X51266Y-44130
X51266Y-45130
X51266Y-46130
X51266Y-47130
X51266Y-48130
X60266Y-41130
X60266Y-42130
X60266Y-43130
X60266Y-44130
X60266Y-45130
X60266Y-46130
X60266Y-47130
X60266Y-48130
T4
X56102Y-48898
X56102Y-51260
X57953Y-50079
T5
X59744Y-51673
X53346Y-46949
T0
M30
