G04 #@! TF.GenerationSoftware,KiCad,Pcbnew,(5.0.0-rc2-dev-158-g52ab6216c)*
G04 #@! TF.CreationDate,2018-07-05T01:48:08+02:00*
G04 #@! TF.ProjectId,7seg-clock,377365672D636C6F636B2E6B69636164,rev?*
G04 #@! TF.SameCoordinates,Original*
G04 #@! TF.FileFunction,Soldermask,Top*
G04 #@! TF.FilePolarity,Negative*
%FSLAX46Y46*%
G04 Gerber Fmt 4.6, Leading zero omitted, Abs format (unit mm)*
G04 Created by KiCad (PCBNEW (5.0.0-rc2-dev-158-g52ab6216c)) date 07/05/18 01:48:08*
%MOMM*%
%LPD*%
G01*
G04 APERTURE LIST*
%ADD10C,3.600000*%
%ADD11R,1.200000X2.300000*%
%ADD12C,0.100000*%
%ADD13C,1.350000*%
%ADD14R,2.000000X2.000000*%
%ADD15C,2.000000*%
%ADD16R,4.400000X4.400000*%
%ADD17C,4.400000*%
%ADD18R,2.100000X2.100000*%
%ADD19O,2.100000X2.100000*%
%ADD20O,2.400000X2.000000*%
%ADD21R,2.400000X2.400000*%
G04 APERTURE END LIST*
D10*
X135500000Y-119250000D03*
D11*
X147700000Y-110100000D03*
X149600000Y-110100000D03*
X148650000Y-107100000D03*
D12*
G36*
X149920581Y-111526625D02*
X149953343Y-111531485D01*
X149985471Y-111539533D01*
X150016656Y-111550691D01*
X150046596Y-111564852D01*
X150075005Y-111581879D01*
X150101608Y-111601609D01*
X150126149Y-111623851D01*
X150148391Y-111648392D01*
X150168121Y-111674995D01*
X150185148Y-111703404D01*
X150199309Y-111733344D01*
X150210467Y-111764529D01*
X150218515Y-111796657D01*
X150223375Y-111829419D01*
X150225000Y-111862500D01*
X150225000Y-112537500D01*
X150223375Y-112570581D01*
X150218515Y-112603343D01*
X150210467Y-112635471D01*
X150199309Y-112666656D01*
X150185148Y-112696596D01*
X150168121Y-112725005D01*
X150148391Y-112751608D01*
X150126149Y-112776149D01*
X150101608Y-112798391D01*
X150075005Y-112818121D01*
X150046596Y-112835148D01*
X150016656Y-112849309D01*
X149985471Y-112860467D01*
X149953343Y-112868515D01*
X149920581Y-112873375D01*
X149887500Y-112875000D01*
X149112500Y-112875000D01*
X149079419Y-112873375D01*
X149046657Y-112868515D01*
X149014529Y-112860467D01*
X148983344Y-112849309D01*
X148953404Y-112835148D01*
X148924995Y-112818121D01*
X148898392Y-112798391D01*
X148873851Y-112776149D01*
X148851609Y-112751608D01*
X148831879Y-112725005D01*
X148814852Y-112696596D01*
X148800691Y-112666656D01*
X148789533Y-112635471D01*
X148781485Y-112603343D01*
X148776625Y-112570581D01*
X148775000Y-112537500D01*
X148775000Y-111862500D01*
X148776625Y-111829419D01*
X148781485Y-111796657D01*
X148789533Y-111764529D01*
X148800691Y-111733344D01*
X148814852Y-111703404D01*
X148831879Y-111674995D01*
X148851609Y-111648392D01*
X148873851Y-111623851D01*
X148898392Y-111601609D01*
X148924995Y-111581879D01*
X148953404Y-111564852D01*
X148983344Y-111550691D01*
X149014529Y-111539533D01*
X149046657Y-111531485D01*
X149079419Y-111526625D01*
X149112500Y-111525000D01*
X149887500Y-111525000D01*
X149920581Y-111526625D01*
X149920581Y-111526625D01*
G37*
D13*
X149500000Y-112200000D03*
D12*
G36*
X148170581Y-111526625D02*
X148203343Y-111531485D01*
X148235471Y-111539533D01*
X148266656Y-111550691D01*
X148296596Y-111564852D01*
X148325005Y-111581879D01*
X148351608Y-111601609D01*
X148376149Y-111623851D01*
X148398391Y-111648392D01*
X148418121Y-111674995D01*
X148435148Y-111703404D01*
X148449309Y-111733344D01*
X148460467Y-111764529D01*
X148468515Y-111796657D01*
X148473375Y-111829419D01*
X148475000Y-111862500D01*
X148475000Y-112537500D01*
X148473375Y-112570581D01*
X148468515Y-112603343D01*
X148460467Y-112635471D01*
X148449309Y-112666656D01*
X148435148Y-112696596D01*
X148418121Y-112725005D01*
X148398391Y-112751608D01*
X148376149Y-112776149D01*
X148351608Y-112798391D01*
X148325005Y-112818121D01*
X148296596Y-112835148D01*
X148266656Y-112849309D01*
X148235471Y-112860467D01*
X148203343Y-112868515D01*
X148170581Y-112873375D01*
X148137500Y-112875000D01*
X147362500Y-112875000D01*
X147329419Y-112873375D01*
X147296657Y-112868515D01*
X147264529Y-112860467D01*
X147233344Y-112849309D01*
X147203404Y-112835148D01*
X147174995Y-112818121D01*
X147148392Y-112798391D01*
X147123851Y-112776149D01*
X147101609Y-112751608D01*
X147081879Y-112725005D01*
X147064852Y-112696596D01*
X147050691Y-112666656D01*
X147039533Y-112635471D01*
X147031485Y-112603343D01*
X147026625Y-112570581D01*
X147025000Y-112537500D01*
X147025000Y-111862500D01*
X147026625Y-111829419D01*
X147031485Y-111796657D01*
X147039533Y-111764529D01*
X147050691Y-111733344D01*
X147064852Y-111703404D01*
X147081879Y-111674995D01*
X147101609Y-111648392D01*
X147123851Y-111623851D01*
X147148392Y-111601609D01*
X147174995Y-111581879D01*
X147203404Y-111564852D01*
X147233344Y-111550691D01*
X147264529Y-111539533D01*
X147296657Y-111531485D01*
X147329419Y-111526625D01*
X147362500Y-111525000D01*
X148137500Y-111525000D01*
X148170581Y-111526625D01*
X148170581Y-111526625D01*
G37*
D13*
X147750000Y-112200000D03*
D12*
G36*
X150045581Y-104326625D02*
X150078343Y-104331485D01*
X150110471Y-104339533D01*
X150141656Y-104350691D01*
X150171596Y-104364852D01*
X150200005Y-104381879D01*
X150226608Y-104401609D01*
X150251149Y-104423851D01*
X150273391Y-104448392D01*
X150293121Y-104474995D01*
X150310148Y-104503404D01*
X150324309Y-104533344D01*
X150335467Y-104564529D01*
X150343515Y-104596657D01*
X150348375Y-104629419D01*
X150350000Y-104662500D01*
X150350000Y-105337500D01*
X150348375Y-105370581D01*
X150343515Y-105403343D01*
X150335467Y-105435471D01*
X150324309Y-105466656D01*
X150310148Y-105496596D01*
X150293121Y-105525005D01*
X150273391Y-105551608D01*
X150251149Y-105576149D01*
X150226608Y-105598391D01*
X150200005Y-105618121D01*
X150171596Y-105635148D01*
X150141656Y-105649309D01*
X150110471Y-105660467D01*
X150078343Y-105668515D01*
X150045581Y-105673375D01*
X150012500Y-105675000D01*
X149237500Y-105675000D01*
X149204419Y-105673375D01*
X149171657Y-105668515D01*
X149139529Y-105660467D01*
X149108344Y-105649309D01*
X149078404Y-105635148D01*
X149049995Y-105618121D01*
X149023392Y-105598391D01*
X148998851Y-105576149D01*
X148976609Y-105551608D01*
X148956879Y-105525005D01*
X148939852Y-105496596D01*
X148925691Y-105466656D01*
X148914533Y-105435471D01*
X148906485Y-105403343D01*
X148901625Y-105370581D01*
X148900000Y-105337500D01*
X148900000Y-104662500D01*
X148901625Y-104629419D01*
X148906485Y-104596657D01*
X148914533Y-104564529D01*
X148925691Y-104533344D01*
X148939852Y-104503404D01*
X148956879Y-104474995D01*
X148976609Y-104448392D01*
X148998851Y-104423851D01*
X149023392Y-104401609D01*
X149049995Y-104381879D01*
X149078404Y-104364852D01*
X149108344Y-104350691D01*
X149139529Y-104339533D01*
X149171657Y-104331485D01*
X149204419Y-104326625D01*
X149237500Y-104325000D01*
X150012500Y-104325000D01*
X150045581Y-104326625D01*
X150045581Y-104326625D01*
G37*
D13*
X149625000Y-105000000D03*
D12*
G36*
X148295581Y-104326625D02*
X148328343Y-104331485D01*
X148360471Y-104339533D01*
X148391656Y-104350691D01*
X148421596Y-104364852D01*
X148450005Y-104381879D01*
X148476608Y-104401609D01*
X148501149Y-104423851D01*
X148523391Y-104448392D01*
X148543121Y-104474995D01*
X148560148Y-104503404D01*
X148574309Y-104533344D01*
X148585467Y-104564529D01*
X148593515Y-104596657D01*
X148598375Y-104629419D01*
X148600000Y-104662500D01*
X148600000Y-105337500D01*
X148598375Y-105370581D01*
X148593515Y-105403343D01*
X148585467Y-105435471D01*
X148574309Y-105466656D01*
X148560148Y-105496596D01*
X148543121Y-105525005D01*
X148523391Y-105551608D01*
X148501149Y-105576149D01*
X148476608Y-105598391D01*
X148450005Y-105618121D01*
X148421596Y-105635148D01*
X148391656Y-105649309D01*
X148360471Y-105660467D01*
X148328343Y-105668515D01*
X148295581Y-105673375D01*
X148262500Y-105675000D01*
X147487500Y-105675000D01*
X147454419Y-105673375D01*
X147421657Y-105668515D01*
X147389529Y-105660467D01*
X147358344Y-105649309D01*
X147328404Y-105635148D01*
X147299995Y-105618121D01*
X147273392Y-105598391D01*
X147248851Y-105576149D01*
X147226609Y-105551608D01*
X147206879Y-105525005D01*
X147189852Y-105496596D01*
X147175691Y-105466656D01*
X147164533Y-105435471D01*
X147156485Y-105403343D01*
X147151625Y-105370581D01*
X147150000Y-105337500D01*
X147150000Y-104662500D01*
X147151625Y-104629419D01*
X147156485Y-104596657D01*
X147164533Y-104564529D01*
X147175691Y-104533344D01*
X147189852Y-104503404D01*
X147206879Y-104474995D01*
X147226609Y-104448392D01*
X147248851Y-104423851D01*
X147273392Y-104401609D01*
X147299995Y-104381879D01*
X147328404Y-104364852D01*
X147358344Y-104350691D01*
X147389529Y-104339533D01*
X147421657Y-104331485D01*
X147454419Y-104326625D01*
X147487500Y-104325000D01*
X148262500Y-104325000D01*
X148295581Y-104326625D01*
X148295581Y-104326625D01*
G37*
D13*
X147875000Y-105000000D03*
D14*
X134100000Y-124600000D03*
D15*
X134100000Y-127100000D03*
D16*
X142500000Y-124200000D03*
D12*
G36*
X143707819Y-128005297D02*
X143814599Y-128021136D01*
X143919313Y-128047366D01*
X144020952Y-128083733D01*
X144118536Y-128129887D01*
X144211127Y-128185383D01*
X144297833Y-128249689D01*
X144377817Y-128322183D01*
X144450311Y-128402167D01*
X144514617Y-128488873D01*
X144570113Y-128581464D01*
X144616267Y-128679048D01*
X144652634Y-128780687D01*
X144678864Y-128885401D01*
X144694703Y-128992181D01*
X144700000Y-129100000D01*
X144700000Y-131300000D01*
X144694703Y-131407819D01*
X144678864Y-131514599D01*
X144652634Y-131619313D01*
X144616267Y-131720952D01*
X144570113Y-131818536D01*
X144514617Y-131911127D01*
X144450311Y-131997833D01*
X144377817Y-132077817D01*
X144297833Y-132150311D01*
X144211127Y-132214617D01*
X144118536Y-132270113D01*
X144020952Y-132316267D01*
X143919313Y-132352634D01*
X143814599Y-132378864D01*
X143707819Y-132394703D01*
X143600000Y-132400000D01*
X141400000Y-132400000D01*
X141292181Y-132394703D01*
X141185401Y-132378864D01*
X141080687Y-132352634D01*
X140979048Y-132316267D01*
X140881464Y-132270113D01*
X140788873Y-132214617D01*
X140702167Y-132150311D01*
X140622183Y-132077817D01*
X140549689Y-131997833D01*
X140485383Y-131911127D01*
X140429887Y-131818536D01*
X140383733Y-131720952D01*
X140347366Y-131619313D01*
X140321136Y-131514599D01*
X140305297Y-131407819D01*
X140300000Y-131300000D01*
X140300000Y-129100000D01*
X140305297Y-128992181D01*
X140321136Y-128885401D01*
X140347366Y-128780687D01*
X140383733Y-128679048D01*
X140429887Y-128581464D01*
X140485383Y-128488873D01*
X140549689Y-128402167D01*
X140622183Y-128322183D01*
X140702167Y-128249689D01*
X140788873Y-128185383D01*
X140881464Y-128129887D01*
X140979048Y-128083733D01*
X141080687Y-128047366D01*
X141185401Y-128021136D01*
X141292181Y-128005297D01*
X141400000Y-128000000D01*
X143600000Y-128000000D01*
X143707819Y-128005297D01*
X143707819Y-128005297D01*
G37*
D17*
X142500000Y-130200000D03*
D12*
G36*
X148407819Y-125005297D02*
X148514599Y-125021136D01*
X148619313Y-125047366D01*
X148720952Y-125083733D01*
X148818536Y-125129887D01*
X148911127Y-125185383D01*
X148997833Y-125249689D01*
X149077817Y-125322183D01*
X149150311Y-125402167D01*
X149214617Y-125488873D01*
X149270113Y-125581464D01*
X149316267Y-125679048D01*
X149352634Y-125780687D01*
X149378864Y-125885401D01*
X149394703Y-125992181D01*
X149400000Y-126100000D01*
X149400000Y-128300000D01*
X149394703Y-128407819D01*
X149378864Y-128514599D01*
X149352634Y-128619313D01*
X149316267Y-128720952D01*
X149270113Y-128818536D01*
X149214617Y-128911127D01*
X149150311Y-128997833D01*
X149077817Y-129077817D01*
X148997833Y-129150311D01*
X148911127Y-129214617D01*
X148818536Y-129270113D01*
X148720952Y-129316267D01*
X148619313Y-129352634D01*
X148514599Y-129378864D01*
X148407819Y-129394703D01*
X148300000Y-129400000D01*
X146100000Y-129400000D01*
X145992181Y-129394703D01*
X145885401Y-129378864D01*
X145780687Y-129352634D01*
X145679048Y-129316267D01*
X145581464Y-129270113D01*
X145488873Y-129214617D01*
X145402167Y-129150311D01*
X145322183Y-129077817D01*
X145249689Y-128997833D01*
X145185383Y-128911127D01*
X145129887Y-128818536D01*
X145083733Y-128720952D01*
X145047366Y-128619313D01*
X145021136Y-128514599D01*
X145005297Y-128407819D01*
X145000000Y-128300000D01*
X145000000Y-126100000D01*
X145005297Y-125992181D01*
X145021136Y-125885401D01*
X145047366Y-125780687D01*
X145083733Y-125679048D01*
X145129887Y-125581464D01*
X145185383Y-125488873D01*
X145249689Y-125402167D01*
X145322183Y-125322183D01*
X145402167Y-125249689D01*
X145488873Y-125185383D01*
X145581464Y-125129887D01*
X145679048Y-125083733D01*
X145780687Y-125047366D01*
X145885401Y-125021136D01*
X145992181Y-125005297D01*
X146100000Y-125000000D01*
X148300000Y-125000000D01*
X148407819Y-125005297D01*
X148407819Y-125005297D01*
G37*
D17*
X147200000Y-127200000D03*
D18*
X142500000Y-119600000D03*
D19*
X142500000Y-117060000D03*
X142500000Y-114520000D03*
X142500000Y-111980000D03*
X142500000Y-109440000D03*
X142500000Y-106900000D03*
D11*
X134800000Y-107100000D03*
X135750000Y-110100000D03*
X133850000Y-110100000D03*
D12*
G36*
X134445581Y-104326625D02*
X134478343Y-104331485D01*
X134510471Y-104339533D01*
X134541656Y-104350691D01*
X134571596Y-104364852D01*
X134600005Y-104381879D01*
X134626608Y-104401609D01*
X134651149Y-104423851D01*
X134673391Y-104448392D01*
X134693121Y-104474995D01*
X134710148Y-104503404D01*
X134724309Y-104533344D01*
X134735467Y-104564529D01*
X134743515Y-104596657D01*
X134748375Y-104629419D01*
X134750000Y-104662500D01*
X134750000Y-105337500D01*
X134748375Y-105370581D01*
X134743515Y-105403343D01*
X134735467Y-105435471D01*
X134724309Y-105466656D01*
X134710148Y-105496596D01*
X134693121Y-105525005D01*
X134673391Y-105551608D01*
X134651149Y-105576149D01*
X134626608Y-105598391D01*
X134600005Y-105618121D01*
X134571596Y-105635148D01*
X134541656Y-105649309D01*
X134510471Y-105660467D01*
X134478343Y-105668515D01*
X134445581Y-105673375D01*
X134412500Y-105675000D01*
X133637500Y-105675000D01*
X133604419Y-105673375D01*
X133571657Y-105668515D01*
X133539529Y-105660467D01*
X133508344Y-105649309D01*
X133478404Y-105635148D01*
X133449995Y-105618121D01*
X133423392Y-105598391D01*
X133398851Y-105576149D01*
X133376609Y-105551608D01*
X133356879Y-105525005D01*
X133339852Y-105496596D01*
X133325691Y-105466656D01*
X133314533Y-105435471D01*
X133306485Y-105403343D01*
X133301625Y-105370581D01*
X133300000Y-105337500D01*
X133300000Y-104662500D01*
X133301625Y-104629419D01*
X133306485Y-104596657D01*
X133314533Y-104564529D01*
X133325691Y-104533344D01*
X133339852Y-104503404D01*
X133356879Y-104474995D01*
X133376609Y-104448392D01*
X133398851Y-104423851D01*
X133423392Y-104401609D01*
X133449995Y-104381879D01*
X133478404Y-104364852D01*
X133508344Y-104350691D01*
X133539529Y-104339533D01*
X133571657Y-104331485D01*
X133604419Y-104326625D01*
X133637500Y-104325000D01*
X134412500Y-104325000D01*
X134445581Y-104326625D01*
X134445581Y-104326625D01*
G37*
D13*
X134025000Y-105000000D03*
D12*
G36*
X136195581Y-104326625D02*
X136228343Y-104331485D01*
X136260471Y-104339533D01*
X136291656Y-104350691D01*
X136321596Y-104364852D01*
X136350005Y-104381879D01*
X136376608Y-104401609D01*
X136401149Y-104423851D01*
X136423391Y-104448392D01*
X136443121Y-104474995D01*
X136460148Y-104503404D01*
X136474309Y-104533344D01*
X136485467Y-104564529D01*
X136493515Y-104596657D01*
X136498375Y-104629419D01*
X136500000Y-104662500D01*
X136500000Y-105337500D01*
X136498375Y-105370581D01*
X136493515Y-105403343D01*
X136485467Y-105435471D01*
X136474309Y-105466656D01*
X136460148Y-105496596D01*
X136443121Y-105525005D01*
X136423391Y-105551608D01*
X136401149Y-105576149D01*
X136376608Y-105598391D01*
X136350005Y-105618121D01*
X136321596Y-105635148D01*
X136291656Y-105649309D01*
X136260471Y-105660467D01*
X136228343Y-105668515D01*
X136195581Y-105673375D01*
X136162500Y-105675000D01*
X135387500Y-105675000D01*
X135354419Y-105673375D01*
X135321657Y-105668515D01*
X135289529Y-105660467D01*
X135258344Y-105649309D01*
X135228404Y-105635148D01*
X135199995Y-105618121D01*
X135173392Y-105598391D01*
X135148851Y-105576149D01*
X135126609Y-105551608D01*
X135106879Y-105525005D01*
X135089852Y-105496596D01*
X135075691Y-105466656D01*
X135064533Y-105435471D01*
X135056485Y-105403343D01*
X135051625Y-105370581D01*
X135050000Y-105337500D01*
X135050000Y-104662500D01*
X135051625Y-104629419D01*
X135056485Y-104596657D01*
X135064533Y-104564529D01*
X135075691Y-104533344D01*
X135089852Y-104503404D01*
X135106879Y-104474995D01*
X135126609Y-104448392D01*
X135148851Y-104423851D01*
X135173392Y-104401609D01*
X135199995Y-104381879D01*
X135228404Y-104364852D01*
X135258344Y-104350691D01*
X135289529Y-104339533D01*
X135321657Y-104331485D01*
X135354419Y-104326625D01*
X135387500Y-104325000D01*
X136162500Y-104325000D01*
X136195581Y-104326625D01*
X136195581Y-104326625D01*
G37*
D13*
X135775000Y-105000000D03*
D12*
G36*
X134320581Y-111526625D02*
X134353343Y-111531485D01*
X134385471Y-111539533D01*
X134416656Y-111550691D01*
X134446596Y-111564852D01*
X134475005Y-111581879D01*
X134501608Y-111601609D01*
X134526149Y-111623851D01*
X134548391Y-111648392D01*
X134568121Y-111674995D01*
X134585148Y-111703404D01*
X134599309Y-111733344D01*
X134610467Y-111764529D01*
X134618515Y-111796657D01*
X134623375Y-111829419D01*
X134625000Y-111862500D01*
X134625000Y-112537500D01*
X134623375Y-112570581D01*
X134618515Y-112603343D01*
X134610467Y-112635471D01*
X134599309Y-112666656D01*
X134585148Y-112696596D01*
X134568121Y-112725005D01*
X134548391Y-112751608D01*
X134526149Y-112776149D01*
X134501608Y-112798391D01*
X134475005Y-112818121D01*
X134446596Y-112835148D01*
X134416656Y-112849309D01*
X134385471Y-112860467D01*
X134353343Y-112868515D01*
X134320581Y-112873375D01*
X134287500Y-112875000D01*
X133512500Y-112875000D01*
X133479419Y-112873375D01*
X133446657Y-112868515D01*
X133414529Y-112860467D01*
X133383344Y-112849309D01*
X133353404Y-112835148D01*
X133324995Y-112818121D01*
X133298392Y-112798391D01*
X133273851Y-112776149D01*
X133251609Y-112751608D01*
X133231879Y-112725005D01*
X133214852Y-112696596D01*
X133200691Y-112666656D01*
X133189533Y-112635471D01*
X133181485Y-112603343D01*
X133176625Y-112570581D01*
X133175000Y-112537500D01*
X133175000Y-111862500D01*
X133176625Y-111829419D01*
X133181485Y-111796657D01*
X133189533Y-111764529D01*
X133200691Y-111733344D01*
X133214852Y-111703404D01*
X133231879Y-111674995D01*
X133251609Y-111648392D01*
X133273851Y-111623851D01*
X133298392Y-111601609D01*
X133324995Y-111581879D01*
X133353404Y-111564852D01*
X133383344Y-111550691D01*
X133414529Y-111539533D01*
X133446657Y-111531485D01*
X133479419Y-111526625D01*
X133512500Y-111525000D01*
X134287500Y-111525000D01*
X134320581Y-111526625D01*
X134320581Y-111526625D01*
G37*
D13*
X133900000Y-112200000D03*
D12*
G36*
X136070581Y-111526625D02*
X136103343Y-111531485D01*
X136135471Y-111539533D01*
X136166656Y-111550691D01*
X136196596Y-111564852D01*
X136225005Y-111581879D01*
X136251608Y-111601609D01*
X136276149Y-111623851D01*
X136298391Y-111648392D01*
X136318121Y-111674995D01*
X136335148Y-111703404D01*
X136349309Y-111733344D01*
X136360467Y-111764529D01*
X136368515Y-111796657D01*
X136373375Y-111829419D01*
X136375000Y-111862500D01*
X136375000Y-112537500D01*
X136373375Y-112570581D01*
X136368515Y-112603343D01*
X136360467Y-112635471D01*
X136349309Y-112666656D01*
X136335148Y-112696596D01*
X136318121Y-112725005D01*
X136298391Y-112751608D01*
X136276149Y-112776149D01*
X136251608Y-112798391D01*
X136225005Y-112818121D01*
X136196596Y-112835148D01*
X136166656Y-112849309D01*
X136135471Y-112860467D01*
X136103343Y-112868515D01*
X136070581Y-112873375D01*
X136037500Y-112875000D01*
X135262500Y-112875000D01*
X135229419Y-112873375D01*
X135196657Y-112868515D01*
X135164529Y-112860467D01*
X135133344Y-112849309D01*
X135103404Y-112835148D01*
X135074995Y-112818121D01*
X135048392Y-112798391D01*
X135023851Y-112776149D01*
X135001609Y-112751608D01*
X134981879Y-112725005D01*
X134964852Y-112696596D01*
X134950691Y-112666656D01*
X134939533Y-112635471D01*
X134931485Y-112603343D01*
X134926625Y-112570581D01*
X134925000Y-112537500D01*
X134925000Y-111862500D01*
X134926625Y-111829419D01*
X134931485Y-111796657D01*
X134939533Y-111764529D01*
X134950691Y-111733344D01*
X134964852Y-111703404D01*
X134981879Y-111674995D01*
X135001609Y-111648392D01*
X135023851Y-111623851D01*
X135048392Y-111601609D01*
X135074995Y-111581879D01*
X135103404Y-111564852D01*
X135133344Y-111550691D01*
X135164529Y-111539533D01*
X135196657Y-111531485D01*
X135229419Y-111526625D01*
X135262500Y-111525000D01*
X136037500Y-111525000D01*
X136070581Y-111526625D01*
X136070581Y-111526625D01*
G37*
D13*
X135650000Y-112200000D03*
D20*
X130215001Y-107010001D03*
D21*
X130215001Y-104470001D03*
D20*
X130215001Y-109550001D03*
X130215001Y-112090001D03*
X130215001Y-114630001D03*
X130215001Y-117170001D03*
X130215001Y-119710001D03*
X130215001Y-122250001D03*
X153075001Y-122250001D03*
X153075001Y-119710001D03*
X153075001Y-117170001D03*
X153075001Y-114630001D03*
X153075001Y-112090001D03*
X153075001Y-109550001D03*
X153075001Y-107010001D03*
X153075001Y-104470001D03*
D10*
X151750000Y-131250000D03*
M02*
