G04 #@! TF.GenerationSoftware,KiCad,Pcbnew,(5.0.0-rc2-dev-158-g52ab6216c)*
G04 #@! TF.CreationDate,2018-07-05T01:37:53+02:00*
G04 #@! TF.ProjectId,7seg-clock,377365672D636C6F636B2E6B69636164,rev?*
G04 #@! TF.SameCoordinates,Original*
G04 #@! TF.FileFunction,Copper,L1,Top,Signal*
G04 #@! TF.FilePolarity,Positive*
%FSLAX46Y46*%
G04 Gerber Fmt 4.6, Leading zero omitted, Abs format (unit mm)*
G04 Created by KiCad (PCBNEW (5.0.0-rc2-dev-158-g52ab6216c)) date 07/05/18 01:37:53*
%MOMM*%
%LPD*%
G01*
G04 APERTURE LIST*
%ADD10R,0.800000X1.900000*%
%ADD11C,0.100000*%
%ADD12C,0.950000*%
%ADD13R,1.600000X1.600000*%
%ADD14C,1.600000*%
%ADD15R,3.500000X3.500000*%
%ADD16C,3.000000*%
%ADD17C,3.500000*%
%ADD18R,1.700000X1.700000*%
%ADD19O,1.700000X1.700000*%
%ADD20O,2.000000X1.600000*%
%ADD21R,2.000000X2.000000*%
%ADD22C,0.800000*%
%ADD23C,0.250000*%
%ADD24C,0.600000*%
%ADD25C,0.400000*%
%ADD26C,1.800000*%
%ADD27C,0.254000*%
G04 APERTURE END LIST*
D10*
X147700000Y-110100000D03*
X149600000Y-110100000D03*
X148650000Y-107100000D03*
D11*
G36*
X149810779Y-111726144D02*
X149833834Y-111729563D01*
X149856443Y-111735227D01*
X149878387Y-111743079D01*
X149899457Y-111753044D01*
X149919448Y-111765026D01*
X149938168Y-111778910D01*
X149955438Y-111794562D01*
X149971090Y-111811832D01*
X149984974Y-111830552D01*
X149996956Y-111850543D01*
X150006921Y-111871613D01*
X150014773Y-111893557D01*
X150020437Y-111916166D01*
X150023856Y-111939221D01*
X150025000Y-111962500D01*
X150025000Y-112437500D01*
X150023856Y-112460779D01*
X150020437Y-112483834D01*
X150014773Y-112506443D01*
X150006921Y-112528387D01*
X149996956Y-112549457D01*
X149984974Y-112569448D01*
X149971090Y-112588168D01*
X149955438Y-112605438D01*
X149938168Y-112621090D01*
X149919448Y-112634974D01*
X149899457Y-112646956D01*
X149878387Y-112656921D01*
X149856443Y-112664773D01*
X149833834Y-112670437D01*
X149810779Y-112673856D01*
X149787500Y-112675000D01*
X149212500Y-112675000D01*
X149189221Y-112673856D01*
X149166166Y-112670437D01*
X149143557Y-112664773D01*
X149121613Y-112656921D01*
X149100543Y-112646956D01*
X149080552Y-112634974D01*
X149061832Y-112621090D01*
X149044562Y-112605438D01*
X149028910Y-112588168D01*
X149015026Y-112569448D01*
X149003044Y-112549457D01*
X148993079Y-112528387D01*
X148985227Y-112506443D01*
X148979563Y-112483834D01*
X148976144Y-112460779D01*
X148975000Y-112437500D01*
X148975000Y-111962500D01*
X148976144Y-111939221D01*
X148979563Y-111916166D01*
X148985227Y-111893557D01*
X148993079Y-111871613D01*
X149003044Y-111850543D01*
X149015026Y-111830552D01*
X149028910Y-111811832D01*
X149044562Y-111794562D01*
X149061832Y-111778910D01*
X149080552Y-111765026D01*
X149100543Y-111753044D01*
X149121613Y-111743079D01*
X149143557Y-111735227D01*
X149166166Y-111729563D01*
X149189221Y-111726144D01*
X149212500Y-111725000D01*
X149787500Y-111725000D01*
X149810779Y-111726144D01*
X149810779Y-111726144D01*
G37*
D12*
X149500000Y-112200000D03*
D11*
G36*
X148060779Y-111726144D02*
X148083834Y-111729563D01*
X148106443Y-111735227D01*
X148128387Y-111743079D01*
X148149457Y-111753044D01*
X148169448Y-111765026D01*
X148188168Y-111778910D01*
X148205438Y-111794562D01*
X148221090Y-111811832D01*
X148234974Y-111830552D01*
X148246956Y-111850543D01*
X148256921Y-111871613D01*
X148264773Y-111893557D01*
X148270437Y-111916166D01*
X148273856Y-111939221D01*
X148275000Y-111962500D01*
X148275000Y-112437500D01*
X148273856Y-112460779D01*
X148270437Y-112483834D01*
X148264773Y-112506443D01*
X148256921Y-112528387D01*
X148246956Y-112549457D01*
X148234974Y-112569448D01*
X148221090Y-112588168D01*
X148205438Y-112605438D01*
X148188168Y-112621090D01*
X148169448Y-112634974D01*
X148149457Y-112646956D01*
X148128387Y-112656921D01*
X148106443Y-112664773D01*
X148083834Y-112670437D01*
X148060779Y-112673856D01*
X148037500Y-112675000D01*
X147462500Y-112675000D01*
X147439221Y-112673856D01*
X147416166Y-112670437D01*
X147393557Y-112664773D01*
X147371613Y-112656921D01*
X147350543Y-112646956D01*
X147330552Y-112634974D01*
X147311832Y-112621090D01*
X147294562Y-112605438D01*
X147278910Y-112588168D01*
X147265026Y-112569448D01*
X147253044Y-112549457D01*
X147243079Y-112528387D01*
X147235227Y-112506443D01*
X147229563Y-112483834D01*
X147226144Y-112460779D01*
X147225000Y-112437500D01*
X147225000Y-111962500D01*
X147226144Y-111939221D01*
X147229563Y-111916166D01*
X147235227Y-111893557D01*
X147243079Y-111871613D01*
X147253044Y-111850543D01*
X147265026Y-111830552D01*
X147278910Y-111811832D01*
X147294562Y-111794562D01*
X147311832Y-111778910D01*
X147330552Y-111765026D01*
X147350543Y-111753044D01*
X147371613Y-111743079D01*
X147393557Y-111735227D01*
X147416166Y-111729563D01*
X147439221Y-111726144D01*
X147462500Y-111725000D01*
X148037500Y-111725000D01*
X148060779Y-111726144D01*
X148060779Y-111726144D01*
G37*
D12*
X147750000Y-112200000D03*
D11*
G36*
X149935779Y-104526144D02*
X149958834Y-104529563D01*
X149981443Y-104535227D01*
X150003387Y-104543079D01*
X150024457Y-104553044D01*
X150044448Y-104565026D01*
X150063168Y-104578910D01*
X150080438Y-104594562D01*
X150096090Y-104611832D01*
X150109974Y-104630552D01*
X150121956Y-104650543D01*
X150131921Y-104671613D01*
X150139773Y-104693557D01*
X150145437Y-104716166D01*
X150148856Y-104739221D01*
X150150000Y-104762500D01*
X150150000Y-105237500D01*
X150148856Y-105260779D01*
X150145437Y-105283834D01*
X150139773Y-105306443D01*
X150131921Y-105328387D01*
X150121956Y-105349457D01*
X150109974Y-105369448D01*
X150096090Y-105388168D01*
X150080438Y-105405438D01*
X150063168Y-105421090D01*
X150044448Y-105434974D01*
X150024457Y-105446956D01*
X150003387Y-105456921D01*
X149981443Y-105464773D01*
X149958834Y-105470437D01*
X149935779Y-105473856D01*
X149912500Y-105475000D01*
X149337500Y-105475000D01*
X149314221Y-105473856D01*
X149291166Y-105470437D01*
X149268557Y-105464773D01*
X149246613Y-105456921D01*
X149225543Y-105446956D01*
X149205552Y-105434974D01*
X149186832Y-105421090D01*
X149169562Y-105405438D01*
X149153910Y-105388168D01*
X149140026Y-105369448D01*
X149128044Y-105349457D01*
X149118079Y-105328387D01*
X149110227Y-105306443D01*
X149104563Y-105283834D01*
X149101144Y-105260779D01*
X149100000Y-105237500D01*
X149100000Y-104762500D01*
X149101144Y-104739221D01*
X149104563Y-104716166D01*
X149110227Y-104693557D01*
X149118079Y-104671613D01*
X149128044Y-104650543D01*
X149140026Y-104630552D01*
X149153910Y-104611832D01*
X149169562Y-104594562D01*
X149186832Y-104578910D01*
X149205552Y-104565026D01*
X149225543Y-104553044D01*
X149246613Y-104543079D01*
X149268557Y-104535227D01*
X149291166Y-104529563D01*
X149314221Y-104526144D01*
X149337500Y-104525000D01*
X149912500Y-104525000D01*
X149935779Y-104526144D01*
X149935779Y-104526144D01*
G37*
D12*
X149625000Y-105000000D03*
D11*
G36*
X148185779Y-104526144D02*
X148208834Y-104529563D01*
X148231443Y-104535227D01*
X148253387Y-104543079D01*
X148274457Y-104553044D01*
X148294448Y-104565026D01*
X148313168Y-104578910D01*
X148330438Y-104594562D01*
X148346090Y-104611832D01*
X148359974Y-104630552D01*
X148371956Y-104650543D01*
X148381921Y-104671613D01*
X148389773Y-104693557D01*
X148395437Y-104716166D01*
X148398856Y-104739221D01*
X148400000Y-104762500D01*
X148400000Y-105237500D01*
X148398856Y-105260779D01*
X148395437Y-105283834D01*
X148389773Y-105306443D01*
X148381921Y-105328387D01*
X148371956Y-105349457D01*
X148359974Y-105369448D01*
X148346090Y-105388168D01*
X148330438Y-105405438D01*
X148313168Y-105421090D01*
X148294448Y-105434974D01*
X148274457Y-105446956D01*
X148253387Y-105456921D01*
X148231443Y-105464773D01*
X148208834Y-105470437D01*
X148185779Y-105473856D01*
X148162500Y-105475000D01*
X147587500Y-105475000D01*
X147564221Y-105473856D01*
X147541166Y-105470437D01*
X147518557Y-105464773D01*
X147496613Y-105456921D01*
X147475543Y-105446956D01*
X147455552Y-105434974D01*
X147436832Y-105421090D01*
X147419562Y-105405438D01*
X147403910Y-105388168D01*
X147390026Y-105369448D01*
X147378044Y-105349457D01*
X147368079Y-105328387D01*
X147360227Y-105306443D01*
X147354563Y-105283834D01*
X147351144Y-105260779D01*
X147350000Y-105237500D01*
X147350000Y-104762500D01*
X147351144Y-104739221D01*
X147354563Y-104716166D01*
X147360227Y-104693557D01*
X147368079Y-104671613D01*
X147378044Y-104650543D01*
X147390026Y-104630552D01*
X147403910Y-104611832D01*
X147419562Y-104594562D01*
X147436832Y-104578910D01*
X147455552Y-104565026D01*
X147475543Y-104553044D01*
X147496613Y-104543079D01*
X147518557Y-104535227D01*
X147541166Y-104529563D01*
X147564221Y-104526144D01*
X147587500Y-104525000D01*
X148162500Y-104525000D01*
X148185779Y-104526144D01*
X148185779Y-104526144D01*
G37*
D12*
X147875000Y-105000000D03*
D13*
X134100000Y-124600000D03*
D14*
X134100000Y-127100000D03*
D15*
X142500000Y-124200000D03*
D11*
G36*
X143573513Y-128703611D02*
X143646318Y-128714411D01*
X143717714Y-128732295D01*
X143787013Y-128757090D01*
X143853548Y-128788559D01*
X143916678Y-128826398D01*
X143975795Y-128870242D01*
X144030330Y-128919670D01*
X144079758Y-128974205D01*
X144123602Y-129033322D01*
X144161441Y-129096452D01*
X144192910Y-129162987D01*
X144217705Y-129232286D01*
X144235589Y-129303682D01*
X144246389Y-129376487D01*
X144250000Y-129450000D01*
X144250000Y-130950000D01*
X144246389Y-131023513D01*
X144235589Y-131096318D01*
X144217705Y-131167714D01*
X144192910Y-131237013D01*
X144161441Y-131303548D01*
X144123602Y-131366678D01*
X144079758Y-131425795D01*
X144030330Y-131480330D01*
X143975795Y-131529758D01*
X143916678Y-131573602D01*
X143853548Y-131611441D01*
X143787013Y-131642910D01*
X143717714Y-131667705D01*
X143646318Y-131685589D01*
X143573513Y-131696389D01*
X143500000Y-131700000D01*
X141500000Y-131700000D01*
X141426487Y-131696389D01*
X141353682Y-131685589D01*
X141282286Y-131667705D01*
X141212987Y-131642910D01*
X141146452Y-131611441D01*
X141083322Y-131573602D01*
X141024205Y-131529758D01*
X140969670Y-131480330D01*
X140920242Y-131425795D01*
X140876398Y-131366678D01*
X140838559Y-131303548D01*
X140807090Y-131237013D01*
X140782295Y-131167714D01*
X140764411Y-131096318D01*
X140753611Y-131023513D01*
X140750000Y-130950000D01*
X140750000Y-129450000D01*
X140753611Y-129376487D01*
X140764411Y-129303682D01*
X140782295Y-129232286D01*
X140807090Y-129162987D01*
X140838559Y-129096452D01*
X140876398Y-129033322D01*
X140920242Y-128974205D01*
X140969670Y-128919670D01*
X141024205Y-128870242D01*
X141083322Y-128826398D01*
X141146452Y-128788559D01*
X141212987Y-128757090D01*
X141282286Y-128732295D01*
X141353682Y-128714411D01*
X141426487Y-128703611D01*
X141500000Y-128700000D01*
X143500000Y-128700000D01*
X143573513Y-128703611D01*
X143573513Y-128703611D01*
G37*
D16*
X142500000Y-130200000D03*
D11*
G36*
X148160765Y-125454213D02*
X148245704Y-125466813D01*
X148328999Y-125487677D01*
X148409848Y-125516605D01*
X148487472Y-125553319D01*
X148561124Y-125597464D01*
X148630094Y-125648616D01*
X148693718Y-125706282D01*
X148751384Y-125769906D01*
X148802536Y-125838876D01*
X148846681Y-125912528D01*
X148883395Y-125990152D01*
X148912323Y-126071001D01*
X148933187Y-126154296D01*
X148945787Y-126239235D01*
X148950000Y-126325000D01*
X148950000Y-128075000D01*
X148945787Y-128160765D01*
X148933187Y-128245704D01*
X148912323Y-128328999D01*
X148883395Y-128409848D01*
X148846681Y-128487472D01*
X148802536Y-128561124D01*
X148751384Y-128630094D01*
X148693718Y-128693718D01*
X148630094Y-128751384D01*
X148561124Y-128802536D01*
X148487472Y-128846681D01*
X148409848Y-128883395D01*
X148328999Y-128912323D01*
X148245704Y-128933187D01*
X148160765Y-128945787D01*
X148075000Y-128950000D01*
X146325000Y-128950000D01*
X146239235Y-128945787D01*
X146154296Y-128933187D01*
X146071001Y-128912323D01*
X145990152Y-128883395D01*
X145912528Y-128846681D01*
X145838876Y-128802536D01*
X145769906Y-128751384D01*
X145706282Y-128693718D01*
X145648616Y-128630094D01*
X145597464Y-128561124D01*
X145553319Y-128487472D01*
X145516605Y-128409848D01*
X145487677Y-128328999D01*
X145466813Y-128245704D01*
X145454213Y-128160765D01*
X145450000Y-128075000D01*
X145450000Y-126325000D01*
X145454213Y-126239235D01*
X145466813Y-126154296D01*
X145487677Y-126071001D01*
X145516605Y-125990152D01*
X145553319Y-125912528D01*
X145597464Y-125838876D01*
X145648616Y-125769906D01*
X145706282Y-125706282D01*
X145769906Y-125648616D01*
X145838876Y-125597464D01*
X145912528Y-125553319D01*
X145990152Y-125516605D01*
X146071001Y-125487677D01*
X146154296Y-125466813D01*
X146239235Y-125454213D01*
X146325000Y-125450000D01*
X148075000Y-125450000D01*
X148160765Y-125454213D01*
X148160765Y-125454213D01*
G37*
D17*
X147200000Y-127200000D03*
D18*
X142500000Y-119600000D03*
D19*
X142500000Y-117060000D03*
X142500000Y-114520000D03*
X142500000Y-111980000D03*
X142500000Y-109440000D03*
X142500000Y-106900000D03*
D10*
X134800000Y-107100000D03*
X135750000Y-110100000D03*
X133850000Y-110100000D03*
D11*
G36*
X134335779Y-104526144D02*
X134358834Y-104529563D01*
X134381443Y-104535227D01*
X134403387Y-104543079D01*
X134424457Y-104553044D01*
X134444448Y-104565026D01*
X134463168Y-104578910D01*
X134480438Y-104594562D01*
X134496090Y-104611832D01*
X134509974Y-104630552D01*
X134521956Y-104650543D01*
X134531921Y-104671613D01*
X134539773Y-104693557D01*
X134545437Y-104716166D01*
X134548856Y-104739221D01*
X134550000Y-104762500D01*
X134550000Y-105237500D01*
X134548856Y-105260779D01*
X134545437Y-105283834D01*
X134539773Y-105306443D01*
X134531921Y-105328387D01*
X134521956Y-105349457D01*
X134509974Y-105369448D01*
X134496090Y-105388168D01*
X134480438Y-105405438D01*
X134463168Y-105421090D01*
X134444448Y-105434974D01*
X134424457Y-105446956D01*
X134403387Y-105456921D01*
X134381443Y-105464773D01*
X134358834Y-105470437D01*
X134335779Y-105473856D01*
X134312500Y-105475000D01*
X133737500Y-105475000D01*
X133714221Y-105473856D01*
X133691166Y-105470437D01*
X133668557Y-105464773D01*
X133646613Y-105456921D01*
X133625543Y-105446956D01*
X133605552Y-105434974D01*
X133586832Y-105421090D01*
X133569562Y-105405438D01*
X133553910Y-105388168D01*
X133540026Y-105369448D01*
X133528044Y-105349457D01*
X133518079Y-105328387D01*
X133510227Y-105306443D01*
X133504563Y-105283834D01*
X133501144Y-105260779D01*
X133500000Y-105237500D01*
X133500000Y-104762500D01*
X133501144Y-104739221D01*
X133504563Y-104716166D01*
X133510227Y-104693557D01*
X133518079Y-104671613D01*
X133528044Y-104650543D01*
X133540026Y-104630552D01*
X133553910Y-104611832D01*
X133569562Y-104594562D01*
X133586832Y-104578910D01*
X133605552Y-104565026D01*
X133625543Y-104553044D01*
X133646613Y-104543079D01*
X133668557Y-104535227D01*
X133691166Y-104529563D01*
X133714221Y-104526144D01*
X133737500Y-104525000D01*
X134312500Y-104525000D01*
X134335779Y-104526144D01*
X134335779Y-104526144D01*
G37*
D12*
X134025000Y-105000000D03*
D11*
G36*
X136085779Y-104526144D02*
X136108834Y-104529563D01*
X136131443Y-104535227D01*
X136153387Y-104543079D01*
X136174457Y-104553044D01*
X136194448Y-104565026D01*
X136213168Y-104578910D01*
X136230438Y-104594562D01*
X136246090Y-104611832D01*
X136259974Y-104630552D01*
X136271956Y-104650543D01*
X136281921Y-104671613D01*
X136289773Y-104693557D01*
X136295437Y-104716166D01*
X136298856Y-104739221D01*
X136300000Y-104762500D01*
X136300000Y-105237500D01*
X136298856Y-105260779D01*
X136295437Y-105283834D01*
X136289773Y-105306443D01*
X136281921Y-105328387D01*
X136271956Y-105349457D01*
X136259974Y-105369448D01*
X136246090Y-105388168D01*
X136230438Y-105405438D01*
X136213168Y-105421090D01*
X136194448Y-105434974D01*
X136174457Y-105446956D01*
X136153387Y-105456921D01*
X136131443Y-105464773D01*
X136108834Y-105470437D01*
X136085779Y-105473856D01*
X136062500Y-105475000D01*
X135487500Y-105475000D01*
X135464221Y-105473856D01*
X135441166Y-105470437D01*
X135418557Y-105464773D01*
X135396613Y-105456921D01*
X135375543Y-105446956D01*
X135355552Y-105434974D01*
X135336832Y-105421090D01*
X135319562Y-105405438D01*
X135303910Y-105388168D01*
X135290026Y-105369448D01*
X135278044Y-105349457D01*
X135268079Y-105328387D01*
X135260227Y-105306443D01*
X135254563Y-105283834D01*
X135251144Y-105260779D01*
X135250000Y-105237500D01*
X135250000Y-104762500D01*
X135251144Y-104739221D01*
X135254563Y-104716166D01*
X135260227Y-104693557D01*
X135268079Y-104671613D01*
X135278044Y-104650543D01*
X135290026Y-104630552D01*
X135303910Y-104611832D01*
X135319562Y-104594562D01*
X135336832Y-104578910D01*
X135355552Y-104565026D01*
X135375543Y-104553044D01*
X135396613Y-104543079D01*
X135418557Y-104535227D01*
X135441166Y-104529563D01*
X135464221Y-104526144D01*
X135487500Y-104525000D01*
X136062500Y-104525000D01*
X136085779Y-104526144D01*
X136085779Y-104526144D01*
G37*
D12*
X135775000Y-105000000D03*
D11*
G36*
X134210779Y-111726144D02*
X134233834Y-111729563D01*
X134256443Y-111735227D01*
X134278387Y-111743079D01*
X134299457Y-111753044D01*
X134319448Y-111765026D01*
X134338168Y-111778910D01*
X134355438Y-111794562D01*
X134371090Y-111811832D01*
X134384974Y-111830552D01*
X134396956Y-111850543D01*
X134406921Y-111871613D01*
X134414773Y-111893557D01*
X134420437Y-111916166D01*
X134423856Y-111939221D01*
X134425000Y-111962500D01*
X134425000Y-112437500D01*
X134423856Y-112460779D01*
X134420437Y-112483834D01*
X134414773Y-112506443D01*
X134406921Y-112528387D01*
X134396956Y-112549457D01*
X134384974Y-112569448D01*
X134371090Y-112588168D01*
X134355438Y-112605438D01*
X134338168Y-112621090D01*
X134319448Y-112634974D01*
X134299457Y-112646956D01*
X134278387Y-112656921D01*
X134256443Y-112664773D01*
X134233834Y-112670437D01*
X134210779Y-112673856D01*
X134187500Y-112675000D01*
X133612500Y-112675000D01*
X133589221Y-112673856D01*
X133566166Y-112670437D01*
X133543557Y-112664773D01*
X133521613Y-112656921D01*
X133500543Y-112646956D01*
X133480552Y-112634974D01*
X133461832Y-112621090D01*
X133444562Y-112605438D01*
X133428910Y-112588168D01*
X133415026Y-112569448D01*
X133403044Y-112549457D01*
X133393079Y-112528387D01*
X133385227Y-112506443D01*
X133379563Y-112483834D01*
X133376144Y-112460779D01*
X133375000Y-112437500D01*
X133375000Y-111962500D01*
X133376144Y-111939221D01*
X133379563Y-111916166D01*
X133385227Y-111893557D01*
X133393079Y-111871613D01*
X133403044Y-111850543D01*
X133415026Y-111830552D01*
X133428910Y-111811832D01*
X133444562Y-111794562D01*
X133461832Y-111778910D01*
X133480552Y-111765026D01*
X133500543Y-111753044D01*
X133521613Y-111743079D01*
X133543557Y-111735227D01*
X133566166Y-111729563D01*
X133589221Y-111726144D01*
X133612500Y-111725000D01*
X134187500Y-111725000D01*
X134210779Y-111726144D01*
X134210779Y-111726144D01*
G37*
D12*
X133900000Y-112200000D03*
D11*
G36*
X135960779Y-111726144D02*
X135983834Y-111729563D01*
X136006443Y-111735227D01*
X136028387Y-111743079D01*
X136049457Y-111753044D01*
X136069448Y-111765026D01*
X136088168Y-111778910D01*
X136105438Y-111794562D01*
X136121090Y-111811832D01*
X136134974Y-111830552D01*
X136146956Y-111850543D01*
X136156921Y-111871613D01*
X136164773Y-111893557D01*
X136170437Y-111916166D01*
X136173856Y-111939221D01*
X136175000Y-111962500D01*
X136175000Y-112437500D01*
X136173856Y-112460779D01*
X136170437Y-112483834D01*
X136164773Y-112506443D01*
X136156921Y-112528387D01*
X136146956Y-112549457D01*
X136134974Y-112569448D01*
X136121090Y-112588168D01*
X136105438Y-112605438D01*
X136088168Y-112621090D01*
X136069448Y-112634974D01*
X136049457Y-112646956D01*
X136028387Y-112656921D01*
X136006443Y-112664773D01*
X135983834Y-112670437D01*
X135960779Y-112673856D01*
X135937500Y-112675000D01*
X135362500Y-112675000D01*
X135339221Y-112673856D01*
X135316166Y-112670437D01*
X135293557Y-112664773D01*
X135271613Y-112656921D01*
X135250543Y-112646956D01*
X135230552Y-112634974D01*
X135211832Y-112621090D01*
X135194562Y-112605438D01*
X135178910Y-112588168D01*
X135165026Y-112569448D01*
X135153044Y-112549457D01*
X135143079Y-112528387D01*
X135135227Y-112506443D01*
X135129563Y-112483834D01*
X135126144Y-112460779D01*
X135125000Y-112437500D01*
X135125000Y-111962500D01*
X135126144Y-111939221D01*
X135129563Y-111916166D01*
X135135227Y-111893557D01*
X135143079Y-111871613D01*
X135153044Y-111850543D01*
X135165026Y-111830552D01*
X135178910Y-111811832D01*
X135194562Y-111794562D01*
X135211832Y-111778910D01*
X135230552Y-111765026D01*
X135250543Y-111753044D01*
X135271613Y-111743079D01*
X135293557Y-111735227D01*
X135316166Y-111729563D01*
X135339221Y-111726144D01*
X135362500Y-111725000D01*
X135937500Y-111725000D01*
X135960779Y-111726144D01*
X135960779Y-111726144D01*
G37*
D12*
X135650000Y-112200000D03*
D20*
X130215001Y-107010001D03*
D21*
X130215001Y-104470001D03*
D20*
X130215001Y-109550001D03*
X130215001Y-112090001D03*
X130215001Y-114630001D03*
X130215001Y-117170001D03*
X130215001Y-119710001D03*
X130215001Y-122250001D03*
X153075001Y-122250001D03*
X153075001Y-119710001D03*
X153075001Y-117170001D03*
X153075001Y-114630001D03*
X153075001Y-112090001D03*
X153075001Y-109550001D03*
X153075001Y-107010001D03*
X153075001Y-104470001D03*
D22*
X134750000Y-115000000D03*
X147750000Y-113750000D03*
X132500000Y-105000000D03*
X151250000Y-105750000D03*
D23*
X131750000Y-116000000D02*
X132750000Y-115000000D01*
X132750000Y-115000000D02*
X133900000Y-115000000D01*
X131750000Y-121965002D02*
X131750000Y-116000000D01*
X131465001Y-122250001D02*
X131750000Y-121965002D01*
X133900000Y-115000000D02*
X133900000Y-112775000D01*
X134750000Y-115000000D02*
X133900000Y-115000000D01*
X147750000Y-112200000D02*
X147750000Y-113750000D01*
X147700000Y-110100000D02*
X147700000Y-112150000D01*
X147700000Y-112150000D02*
X147750000Y-112200000D01*
X133850000Y-110100000D02*
X133850000Y-112150000D01*
X133850000Y-112150000D02*
X133900000Y-112200000D01*
X130215001Y-122250001D02*
X131465001Y-122250001D01*
X133900000Y-112775000D02*
X133900000Y-112200000D01*
D24*
X151250000Y-104500000D02*
X151250000Y-105750000D01*
X150750000Y-104000000D02*
X151250000Y-104500000D01*
D23*
X134450000Y-104000000D02*
X137000000Y-104000000D01*
D24*
X137000000Y-104000000D02*
X146750000Y-104000000D01*
X134025000Y-105000000D02*
X134025000Y-104425000D01*
X134025000Y-104425000D02*
X134450000Y-104000000D01*
X132500000Y-105000000D02*
X134025000Y-105000000D01*
D25*
X146750000Y-104000000D02*
X150750000Y-104000000D01*
X134450000Y-104000000D02*
X146875000Y-104000000D01*
X146875000Y-104000000D02*
X147875000Y-105000000D01*
D23*
X146750000Y-104000000D02*
X146875000Y-104000000D01*
D26*
X134100000Y-124600000D02*
X142100000Y-124600000D01*
X139400000Y-130200000D02*
X137200000Y-130200000D01*
X142500000Y-130200000D02*
X139400000Y-130200000D01*
X142500000Y-130200000D02*
X144200000Y-130200000D01*
X144200000Y-130200000D02*
X147200000Y-127200000D01*
X137200000Y-130200000D02*
X134100000Y-127100000D01*
D23*
X149500000Y-112200000D02*
X151930001Y-114630001D01*
X151930001Y-114630001D02*
X153075001Y-114630001D01*
X149600000Y-110100000D02*
X149600000Y-112100000D01*
X149600000Y-112100000D02*
X149500000Y-112200000D01*
X140500000Y-115750000D02*
X150405000Y-115750000D01*
X150405000Y-115750000D02*
X151825001Y-117170001D01*
X151825001Y-117170001D02*
X153075001Y-117170001D01*
X136950000Y-112200000D02*
X140500000Y-115750000D01*
X135650000Y-112200000D02*
X136950000Y-112200000D01*
X135650000Y-112200000D02*
X135650000Y-110200000D01*
X135650000Y-110200000D02*
X135750000Y-110100000D01*
X148650000Y-107100000D02*
X149300000Y-107100000D01*
X149300000Y-107100000D02*
X149625000Y-106775000D01*
X149625000Y-106775000D02*
X149625000Y-105575000D01*
X149625000Y-105575000D02*
X149625000Y-105000000D01*
X145250000Y-113250000D02*
X143980000Y-114520000D01*
X143980000Y-114520000D02*
X142500000Y-114520000D01*
X145250000Y-109850000D02*
X145250000Y-113250000D01*
X148650000Y-107100000D02*
X148000000Y-107100000D01*
X148000000Y-107100000D02*
X145250000Y-109850000D01*
X135775000Y-105000000D02*
X135775000Y-106775000D01*
X135775000Y-106775000D02*
X135450000Y-107100000D01*
X135450000Y-107100000D02*
X134800000Y-107100000D01*
X138750000Y-110750000D02*
X139980000Y-111980000D01*
X139980000Y-111980000D02*
X142500000Y-111980000D01*
X138750000Y-108230000D02*
X138750000Y-110750000D01*
X134800000Y-107100000D02*
X137620000Y-107100000D01*
X137620000Y-107100000D02*
X138750000Y-108230000D01*
D27*
G36*
X144173000Y-125873000D02*
X140727000Y-125873000D01*
X140727000Y-116502000D01*
X144173000Y-116502000D01*
X144173000Y-125873000D01*
X144173000Y-125873000D01*
G37*
X144173000Y-125873000D02*
X140727000Y-125873000D01*
X140727000Y-116502000D01*
X144173000Y-116502000D01*
X144173000Y-125873000D01*
G36*
X146623000Y-120250000D02*
X146632667Y-120298601D01*
X146660197Y-120339803D01*
X146701399Y-120367333D01*
X146750000Y-120377000D01*
X150373000Y-120377000D01*
X150373000Y-129477546D01*
X149862040Y-129988506D01*
X149523000Y-130807022D01*
X149523000Y-131692978D01*
X149862040Y-132511494D01*
X150373000Y-133022454D01*
X150373000Y-133523000D01*
X138627000Y-133523000D01*
X138627000Y-126127000D01*
X139998262Y-126127000D01*
X140020728Y-126239943D01*
X140156644Y-126443356D01*
X140360057Y-126579272D01*
X140600000Y-126627000D01*
X144300000Y-126627000D01*
X144539943Y-126579272D01*
X144743356Y-126443356D01*
X144879272Y-126239943D01*
X144927000Y-126000000D01*
X144927000Y-116502000D01*
X146623000Y-116502000D01*
X146623000Y-120250000D01*
X146623000Y-120250000D01*
G37*
X146623000Y-120250000D02*
X146632667Y-120298601D01*
X146660197Y-120339803D01*
X146701399Y-120367333D01*
X146750000Y-120377000D01*
X150373000Y-120377000D01*
X150373000Y-129477546D01*
X149862040Y-129988506D01*
X149523000Y-130807022D01*
X149523000Y-131692978D01*
X149862040Y-132511494D01*
X150373000Y-133022454D01*
X150373000Y-133523000D01*
X138627000Y-133523000D01*
X138627000Y-126127000D01*
X139998262Y-126127000D01*
X140020728Y-126239943D01*
X140156644Y-126443356D01*
X140360057Y-126579272D01*
X140600000Y-126627000D01*
X144300000Y-126627000D01*
X144539943Y-126579272D01*
X144743356Y-126443356D01*
X144879272Y-126239943D01*
X144927000Y-126000000D01*
X144927000Y-116502000D01*
X146623000Y-116502000D01*
X146623000Y-120250000D01*
G36*
X146623000Y-107413512D02*
X144770629Y-109265884D01*
X144707839Y-109307839D01*
X144541632Y-109556585D01*
X144498000Y-109775938D01*
X144498000Y-109775941D01*
X144483269Y-109850000D01*
X144498000Y-109924059D01*
X144498001Y-112938511D01*
X143731689Y-113704823D01*
X143564858Y-113455142D01*
X143257840Y-113250000D01*
X143564858Y-113044858D01*
X143891303Y-112556297D01*
X144005936Y-111980000D01*
X143891303Y-111403703D01*
X143564858Y-110915142D01*
X143076297Y-110588697D01*
X142645471Y-110503000D01*
X142354529Y-110503000D01*
X141923703Y-110588697D01*
X141435142Y-110915142D01*
X141226098Y-111228000D01*
X140291488Y-111228000D01*
X139502000Y-110438513D01*
X139502000Y-108304058D01*
X139516731Y-108229999D01*
X139502000Y-108155938D01*
X139502000Y-108155937D01*
X139458368Y-107936584D01*
X139334114Y-107750625D01*
X139334112Y-107750623D01*
X139292161Y-107687839D01*
X139229377Y-107645888D01*
X138627000Y-107043512D01*
X138627000Y-105127000D01*
X146623000Y-105127000D01*
X146623000Y-107413512D01*
X146623000Y-107413512D01*
G37*
X146623000Y-107413512D02*
X144770629Y-109265884D01*
X144707839Y-109307839D01*
X144541632Y-109556585D01*
X144498000Y-109775938D01*
X144498000Y-109775941D01*
X144483269Y-109850000D01*
X144498000Y-109924059D01*
X144498001Y-112938511D01*
X143731689Y-113704823D01*
X143564858Y-113455142D01*
X143257840Y-113250000D01*
X143564858Y-113044858D01*
X143891303Y-112556297D01*
X144005936Y-111980000D01*
X143891303Y-111403703D01*
X143564858Y-110915142D01*
X143076297Y-110588697D01*
X142645471Y-110503000D01*
X142354529Y-110503000D01*
X141923703Y-110588697D01*
X141435142Y-110915142D01*
X141226098Y-111228000D01*
X140291488Y-111228000D01*
X139502000Y-110438513D01*
X139502000Y-108304058D01*
X139516731Y-108229999D01*
X139502000Y-108155938D01*
X139502000Y-108155937D01*
X139458368Y-107936584D01*
X139334114Y-107750625D01*
X139334112Y-107750623D01*
X139292161Y-107687839D01*
X139229377Y-107645888D01*
X138627000Y-107043512D01*
X138627000Y-105127000D01*
X146623000Y-105127000D01*
X146623000Y-107413512D01*
G36*
X138373000Y-114686488D02*
X138373000Y-123073000D01*
X133949607Y-123073000D01*
X133508623Y-123160717D01*
X133300000Y-123160717D01*
X133055357Y-123209380D01*
X132847959Y-123347959D01*
X132709380Y-123555357D01*
X132660717Y-123800000D01*
X132660717Y-124008623D01*
X132543085Y-124600000D01*
X132660717Y-125191377D01*
X132660717Y-125400000D01*
X132709380Y-125644643D01*
X132847959Y-125852041D01*
X133055357Y-125990620D01*
X133288506Y-126036997D01*
X133271861Y-126092255D01*
X134100000Y-126920395D01*
X134114142Y-126906252D01*
X134293748Y-127085858D01*
X134279605Y-127100000D01*
X135107745Y-127928139D01*
X135353864Y-127854005D01*
X135546965Y-127316777D01*
X135519778Y-126746546D01*
X135353864Y-126345995D01*
X135107747Y-126271861D01*
X135222622Y-126156986D01*
X135192636Y-126127000D01*
X138373000Y-126127000D01*
X138373000Y-133523000D01*
X129571603Y-133523000D01*
X129400978Y-133489061D01*
X129317031Y-133432969D01*
X129260939Y-133349022D01*
X129227000Y-133178397D01*
X129227000Y-128107745D01*
X133271861Y-128107745D01*
X133345995Y-128353864D01*
X133883223Y-128546965D01*
X134453454Y-128519778D01*
X134854005Y-128353864D01*
X134928139Y-128107745D01*
X134100000Y-127279605D01*
X133271861Y-128107745D01*
X129227000Y-128107745D01*
X129227000Y-126883223D01*
X132653035Y-126883223D01*
X132680222Y-127453454D01*
X132846136Y-127854005D01*
X133092255Y-127928139D01*
X133920395Y-127100000D01*
X133092255Y-126271861D01*
X132846136Y-126345995D01*
X132653035Y-126883223D01*
X129227000Y-126883223D01*
X129227000Y-123439713D01*
X129458213Y-123594205D01*
X129874457Y-123677001D01*
X130555545Y-123677001D01*
X130971789Y-123594205D01*
X131443810Y-123278810D01*
X131642518Y-122981423D01*
X131758417Y-122958369D01*
X132007162Y-122792162D01*
X132049117Y-122729372D01*
X132229373Y-122549117D01*
X132292161Y-122507163D01*
X132458368Y-122258418D01*
X132502000Y-122039065D01*
X132502000Y-122039060D01*
X132516731Y-121965003D01*
X132502000Y-121890945D01*
X132502000Y-118807022D01*
X133273000Y-118807022D01*
X133273000Y-119692978D01*
X133612040Y-120511494D01*
X134238506Y-121137960D01*
X135057022Y-121477000D01*
X135942978Y-121477000D01*
X136761494Y-121137960D01*
X137387960Y-120511494D01*
X137727000Y-119692978D01*
X137727000Y-118807022D01*
X137387960Y-117988506D01*
X136761494Y-117362040D01*
X135942978Y-117023000D01*
X135057022Y-117023000D01*
X134238506Y-117362040D01*
X133612040Y-117988506D01*
X133273000Y-118807022D01*
X132502000Y-118807022D01*
X132502000Y-116311487D01*
X133061489Y-115752000D01*
X133825937Y-115752000D01*
X133900000Y-115766732D01*
X133974063Y-115752000D01*
X134049603Y-115752000D01*
X134168251Y-115870648D01*
X134545717Y-116027000D01*
X134954283Y-116027000D01*
X135331749Y-115870648D01*
X135620648Y-115581749D01*
X135777000Y-115204283D01*
X135777000Y-114795717D01*
X135620648Y-114418251D01*
X135331749Y-114129352D01*
X134954283Y-113973000D01*
X134652000Y-113973000D01*
X134652000Y-113161367D01*
X134775000Y-113079181D01*
X135026970Y-113247542D01*
X135362500Y-113314283D01*
X135937500Y-113314283D01*
X136273030Y-113247542D01*
X136557479Y-113057479D01*
X136627958Y-112952000D01*
X136638513Y-112952000D01*
X138373000Y-114686488D01*
X138373000Y-114686488D01*
G37*
X138373000Y-114686488D02*
X138373000Y-123073000D01*
X133949607Y-123073000D01*
X133508623Y-123160717D01*
X133300000Y-123160717D01*
X133055357Y-123209380D01*
X132847959Y-123347959D01*
X132709380Y-123555357D01*
X132660717Y-123800000D01*
X132660717Y-124008623D01*
X132543085Y-124600000D01*
X132660717Y-125191377D01*
X132660717Y-125400000D01*
X132709380Y-125644643D01*
X132847959Y-125852041D01*
X133055357Y-125990620D01*
X133288506Y-126036997D01*
X133271861Y-126092255D01*
X134100000Y-126920395D01*
X134114142Y-126906252D01*
X134293748Y-127085858D01*
X134279605Y-127100000D01*
X135107745Y-127928139D01*
X135353864Y-127854005D01*
X135546965Y-127316777D01*
X135519778Y-126746546D01*
X135353864Y-126345995D01*
X135107747Y-126271861D01*
X135222622Y-126156986D01*
X135192636Y-126127000D01*
X138373000Y-126127000D01*
X138373000Y-133523000D01*
X129571603Y-133523000D01*
X129400978Y-133489061D01*
X129317031Y-133432969D01*
X129260939Y-133349022D01*
X129227000Y-133178397D01*
X129227000Y-128107745D01*
X133271861Y-128107745D01*
X133345995Y-128353864D01*
X133883223Y-128546965D01*
X134453454Y-128519778D01*
X134854005Y-128353864D01*
X134928139Y-128107745D01*
X134100000Y-127279605D01*
X133271861Y-128107745D01*
X129227000Y-128107745D01*
X129227000Y-126883223D01*
X132653035Y-126883223D01*
X132680222Y-127453454D01*
X132846136Y-127854005D01*
X133092255Y-127928139D01*
X133920395Y-127100000D01*
X133092255Y-126271861D01*
X132846136Y-126345995D01*
X132653035Y-126883223D01*
X129227000Y-126883223D01*
X129227000Y-123439713D01*
X129458213Y-123594205D01*
X129874457Y-123677001D01*
X130555545Y-123677001D01*
X130971789Y-123594205D01*
X131443810Y-123278810D01*
X131642518Y-122981423D01*
X131758417Y-122958369D01*
X132007162Y-122792162D01*
X132049117Y-122729372D01*
X132229373Y-122549117D01*
X132292161Y-122507163D01*
X132458368Y-122258418D01*
X132502000Y-122039065D01*
X132502000Y-122039060D01*
X132516731Y-121965003D01*
X132502000Y-121890945D01*
X132502000Y-118807022D01*
X133273000Y-118807022D01*
X133273000Y-119692978D01*
X133612040Y-120511494D01*
X134238506Y-121137960D01*
X135057022Y-121477000D01*
X135942978Y-121477000D01*
X136761494Y-121137960D01*
X137387960Y-120511494D01*
X137727000Y-119692978D01*
X137727000Y-118807022D01*
X137387960Y-117988506D01*
X136761494Y-117362040D01*
X135942978Y-117023000D01*
X135057022Y-117023000D01*
X134238506Y-117362040D01*
X133612040Y-117988506D01*
X133273000Y-118807022D01*
X132502000Y-118807022D01*
X132502000Y-116311487D01*
X133061489Y-115752000D01*
X133825937Y-115752000D01*
X133900000Y-115766732D01*
X133974063Y-115752000D01*
X134049603Y-115752000D01*
X134168251Y-115870648D01*
X134545717Y-116027000D01*
X134954283Y-116027000D01*
X135331749Y-115870648D01*
X135620648Y-115581749D01*
X135777000Y-115204283D01*
X135777000Y-114795717D01*
X135620648Y-114418251D01*
X135331749Y-114129352D01*
X134954283Y-113973000D01*
X134652000Y-113973000D01*
X134652000Y-113161367D01*
X134775000Y-113079181D01*
X135026970Y-113247542D01*
X135362500Y-113314283D01*
X135937500Y-113314283D01*
X136273030Y-113247542D01*
X136557479Y-113057479D01*
X136627958Y-112952000D01*
X136638513Y-112952000D01*
X138373000Y-114686488D01*
G36*
X151240886Y-117649374D02*
X151282840Y-117712162D01*
X151531585Y-117878369D01*
X151647484Y-117901423D01*
X151846192Y-118198810D01*
X152206031Y-118439247D01*
X152185775Y-118445573D01*
X151754364Y-118805577D01*
X151493559Y-119303271D01*
X151483097Y-119360962D01*
X151605086Y-119583001D01*
X152948001Y-119583001D01*
X152948001Y-119563001D01*
X153202001Y-119563001D01*
X153202001Y-119583001D01*
X153222001Y-119583001D01*
X153222001Y-119837001D01*
X153202001Y-119837001D01*
X153202001Y-119857001D01*
X152948001Y-119857001D01*
X152948001Y-119837001D01*
X151605086Y-119837001D01*
X151483097Y-120059040D01*
X151493559Y-120116731D01*
X151754364Y-120614425D01*
X152185775Y-120974429D01*
X152206031Y-120980755D01*
X151846192Y-121221192D01*
X151530797Y-121693213D01*
X151420045Y-122250001D01*
X151530797Y-122806789D01*
X151846192Y-123278810D01*
X152318213Y-123594205D01*
X152734457Y-123677001D01*
X153415545Y-123677001D01*
X153831789Y-123594205D01*
X154023000Y-123466441D01*
X154023000Y-133178397D01*
X153989061Y-133349022D01*
X153932969Y-133432969D01*
X153849022Y-133489061D01*
X153678397Y-133523000D01*
X150627000Y-133523000D01*
X150627000Y-133195326D01*
X151307022Y-133477000D01*
X152192978Y-133477000D01*
X153011494Y-133137960D01*
X153637960Y-132511494D01*
X153977000Y-131692978D01*
X153977000Y-130807022D01*
X153637960Y-129988506D01*
X153011494Y-129362040D01*
X152192978Y-129023000D01*
X151307022Y-129023000D01*
X150627000Y-129304674D01*
X150627000Y-120250000D01*
X150617333Y-120201399D01*
X150589803Y-120160197D01*
X150548601Y-120132667D01*
X150500000Y-120123000D01*
X146877000Y-120123000D01*
X146877000Y-116502000D01*
X150093513Y-116502000D01*
X151240886Y-117649374D01*
X151240886Y-117649374D01*
G37*
X151240886Y-117649374D02*
X151282840Y-117712162D01*
X151531585Y-117878369D01*
X151647484Y-117901423D01*
X151846192Y-118198810D01*
X152206031Y-118439247D01*
X152185775Y-118445573D01*
X151754364Y-118805577D01*
X151493559Y-119303271D01*
X151483097Y-119360962D01*
X151605086Y-119583001D01*
X152948001Y-119583001D01*
X152948001Y-119563001D01*
X153202001Y-119563001D01*
X153202001Y-119583001D01*
X153222001Y-119583001D01*
X153222001Y-119837001D01*
X153202001Y-119837001D01*
X153202001Y-119857001D01*
X152948001Y-119857001D01*
X152948001Y-119837001D01*
X151605086Y-119837001D01*
X151483097Y-120059040D01*
X151493559Y-120116731D01*
X151754364Y-120614425D01*
X152185775Y-120974429D01*
X152206031Y-120980755D01*
X151846192Y-121221192D01*
X151530797Y-121693213D01*
X151420045Y-122250001D01*
X151530797Y-122806789D01*
X151846192Y-123278810D01*
X152318213Y-123594205D01*
X152734457Y-123677001D01*
X153415545Y-123677001D01*
X153831789Y-123594205D01*
X154023000Y-123466441D01*
X154023000Y-133178397D01*
X153989061Y-133349022D01*
X153932969Y-133432969D01*
X153849022Y-133489061D01*
X153678397Y-133523000D01*
X150627000Y-133523000D01*
X150627000Y-133195326D01*
X151307022Y-133477000D01*
X152192978Y-133477000D01*
X153011494Y-133137960D01*
X153637960Y-132511494D01*
X153977000Y-131692978D01*
X153977000Y-130807022D01*
X153637960Y-129988506D01*
X153011494Y-129362040D01*
X152192978Y-129023000D01*
X151307022Y-129023000D01*
X150627000Y-129304674D01*
X150627000Y-120250000D01*
X150617333Y-120201399D01*
X150589803Y-120160197D01*
X150548601Y-120132667D01*
X150500000Y-120123000D01*
X146877000Y-120123000D01*
X146877000Y-116502000D01*
X150093513Y-116502000D01*
X151240886Y-117649374D01*
M02*
