G04 #@! TF.GenerationSoftware,KiCad,Pcbnew,(5.0.0-rc2-dev-158-g52ab6216c)*
G04 #@! TF.CreationDate,2018-07-05T01:48:08+02:00*
G04 #@! TF.ProjectId,7seg-clock,377365672D636C6F636B2E6B69636164,rev?*
G04 #@! TF.SameCoordinates,Original*
G04 #@! TF.FileFunction,Soldermask,Bot*
G04 #@! TF.FilePolarity,Negative*
%FSLAX46Y46*%
G04 Gerber Fmt 4.6, Leading zero omitted, Abs format (unit mm)*
G04 Created by KiCad (PCBNEW (5.0.0-rc2-dev-158-g52ab6216c)) date 07/05/18 01:48:08*
%MOMM*%
%LPD*%
G01*
G04 APERTURE LIST*
%ADD10C,3.600000*%
%ADD11R,2.000000X2.000000*%
%ADD12C,2.000000*%
%ADD13R,4.400000X4.400000*%
%ADD14C,0.100000*%
%ADD15C,4.400000*%
%ADD16R,2.100000X2.100000*%
%ADD17O,2.100000X2.100000*%
%ADD18O,2.400000X2.000000*%
%ADD19R,2.400000X2.400000*%
G04 APERTURE END LIST*
D10*
X135500000Y-119250000D03*
D11*
X134100000Y-124600000D03*
D12*
X134100000Y-127100000D03*
D13*
X142500000Y-124200000D03*
D14*
G36*
X143707819Y-128005297D02*
X143814599Y-128021136D01*
X143919313Y-128047366D01*
X144020952Y-128083733D01*
X144118536Y-128129887D01*
X144211127Y-128185383D01*
X144297833Y-128249689D01*
X144377817Y-128322183D01*
X144450311Y-128402167D01*
X144514617Y-128488873D01*
X144570113Y-128581464D01*
X144616267Y-128679048D01*
X144652634Y-128780687D01*
X144678864Y-128885401D01*
X144694703Y-128992181D01*
X144700000Y-129100000D01*
X144700000Y-131300000D01*
X144694703Y-131407819D01*
X144678864Y-131514599D01*
X144652634Y-131619313D01*
X144616267Y-131720952D01*
X144570113Y-131818536D01*
X144514617Y-131911127D01*
X144450311Y-131997833D01*
X144377817Y-132077817D01*
X144297833Y-132150311D01*
X144211127Y-132214617D01*
X144118536Y-132270113D01*
X144020952Y-132316267D01*
X143919313Y-132352634D01*
X143814599Y-132378864D01*
X143707819Y-132394703D01*
X143600000Y-132400000D01*
X141400000Y-132400000D01*
X141292181Y-132394703D01*
X141185401Y-132378864D01*
X141080687Y-132352634D01*
X140979048Y-132316267D01*
X140881464Y-132270113D01*
X140788873Y-132214617D01*
X140702167Y-132150311D01*
X140622183Y-132077817D01*
X140549689Y-131997833D01*
X140485383Y-131911127D01*
X140429887Y-131818536D01*
X140383733Y-131720952D01*
X140347366Y-131619313D01*
X140321136Y-131514599D01*
X140305297Y-131407819D01*
X140300000Y-131300000D01*
X140300000Y-129100000D01*
X140305297Y-128992181D01*
X140321136Y-128885401D01*
X140347366Y-128780687D01*
X140383733Y-128679048D01*
X140429887Y-128581464D01*
X140485383Y-128488873D01*
X140549689Y-128402167D01*
X140622183Y-128322183D01*
X140702167Y-128249689D01*
X140788873Y-128185383D01*
X140881464Y-128129887D01*
X140979048Y-128083733D01*
X141080687Y-128047366D01*
X141185401Y-128021136D01*
X141292181Y-128005297D01*
X141400000Y-128000000D01*
X143600000Y-128000000D01*
X143707819Y-128005297D01*
X143707819Y-128005297D01*
G37*
D15*
X142500000Y-130200000D03*
D14*
G36*
X148407819Y-125005297D02*
X148514599Y-125021136D01*
X148619313Y-125047366D01*
X148720952Y-125083733D01*
X148818536Y-125129887D01*
X148911127Y-125185383D01*
X148997833Y-125249689D01*
X149077817Y-125322183D01*
X149150311Y-125402167D01*
X149214617Y-125488873D01*
X149270113Y-125581464D01*
X149316267Y-125679048D01*
X149352634Y-125780687D01*
X149378864Y-125885401D01*
X149394703Y-125992181D01*
X149400000Y-126100000D01*
X149400000Y-128300000D01*
X149394703Y-128407819D01*
X149378864Y-128514599D01*
X149352634Y-128619313D01*
X149316267Y-128720952D01*
X149270113Y-128818536D01*
X149214617Y-128911127D01*
X149150311Y-128997833D01*
X149077817Y-129077817D01*
X148997833Y-129150311D01*
X148911127Y-129214617D01*
X148818536Y-129270113D01*
X148720952Y-129316267D01*
X148619313Y-129352634D01*
X148514599Y-129378864D01*
X148407819Y-129394703D01*
X148300000Y-129400000D01*
X146100000Y-129400000D01*
X145992181Y-129394703D01*
X145885401Y-129378864D01*
X145780687Y-129352634D01*
X145679048Y-129316267D01*
X145581464Y-129270113D01*
X145488873Y-129214617D01*
X145402167Y-129150311D01*
X145322183Y-129077817D01*
X145249689Y-128997833D01*
X145185383Y-128911127D01*
X145129887Y-128818536D01*
X145083733Y-128720952D01*
X145047366Y-128619313D01*
X145021136Y-128514599D01*
X145005297Y-128407819D01*
X145000000Y-128300000D01*
X145000000Y-126100000D01*
X145005297Y-125992181D01*
X145021136Y-125885401D01*
X145047366Y-125780687D01*
X145083733Y-125679048D01*
X145129887Y-125581464D01*
X145185383Y-125488873D01*
X145249689Y-125402167D01*
X145322183Y-125322183D01*
X145402167Y-125249689D01*
X145488873Y-125185383D01*
X145581464Y-125129887D01*
X145679048Y-125083733D01*
X145780687Y-125047366D01*
X145885401Y-125021136D01*
X145992181Y-125005297D01*
X146100000Y-125000000D01*
X148300000Y-125000000D01*
X148407819Y-125005297D01*
X148407819Y-125005297D01*
G37*
D15*
X147200000Y-127200000D03*
D16*
X142500000Y-119600000D03*
D17*
X142500000Y-117060000D03*
X142500000Y-114520000D03*
X142500000Y-111980000D03*
X142500000Y-109440000D03*
X142500000Y-106900000D03*
D18*
X130215001Y-107010001D03*
D19*
X130215001Y-104470001D03*
D18*
X130215001Y-109550001D03*
X130215001Y-112090001D03*
X130215001Y-114630001D03*
X130215001Y-117170001D03*
X130215001Y-119710001D03*
X130215001Y-122250001D03*
X153075001Y-122250001D03*
X153075001Y-119710001D03*
X153075001Y-117170001D03*
X153075001Y-114630001D03*
X153075001Y-112090001D03*
X153075001Y-109550001D03*
X153075001Y-107010001D03*
X153075001Y-104470001D03*
D10*
X151750000Y-131250000D03*
M02*
